<svg xmlns="http://www.w3.org/2000/svg" xmlns:xlink="http://www.w3.org/1999/xlink" viewBox="0 0 678.55 578.2"><defs><style>.cls-1{opacity:0.1;}.cls-2{fill:url(#Degradado_sin_nombre_18);}.cls-3{fill:url(#Degradado_sin_nombre_174);}.cls-4{fill:#fff;}.cls-5{fill:#ff8b00;}</style><radialGradient id="Degradado_sin_nombre_18" cx="355.15" cy="531.06" r="0.5" gradientUnits="userSpaceOnUse"><stop offset="0.01" stop-color="#fff"/><stop offset="0.17" stop-color="#fefefe"/><stop offset="0.49" stop-color="#f6f6f6"/><stop offset="0.86"/><stop offset="0.99"/></radialGradient><linearGradient id="Degradado_sin_nombre_174" x1="122.52" y1="365.84" x2="566.32" y2="132.98" gradientUnits="userSpaceOnUse"><stop offset="0" stop-color="#f6d5ad"/><stop offset="0.15" stop-color="#f79f34"/><stop offset="0.18" stop-color="#f79f33"/><stop offset="0.73" stop-color="#f79a28"/><stop offset="0.81" stop-color="#f7af56"/><stop offset="0.94" stop-color="#f6d1a3"/><stop offset="1" stop-color="#f6dec1"/></linearGradient></defs><g id="Capa_1" data-name="Capa 1"><g class="cls-1"><circle class="cls-2" cx="316.61" cy="264" r="264"/></g><circle class="cls-3" cx="316.61" cy="264" r="250.54"/><path class="cls-4" d="M269.47,498.7c12.56,0,24.58-11,24-24s-10.54-24-24-24c-12.55,0-24.58,11-24,24s10.55,24,24,24Z" transform="translate(-67.39 -133)"/><path class="cls-4" d="M276.28,513c18.83,0,36.87-16.56,36-36s-15.82-36-36-36c-18.84,0-36.88,16.56-36,36s15.81,36,36,36Z" transform="translate(-67.39 -133)"/><path class="cls-4" d="M437.28,494.5c15.7,0,30.73-13.8,30-30s-13.18-30-30-30c-15.69,0-30.72,13.79-30,30s13.18,30,30,30Z" transform="translate(-67.39 -133)"/><path class="cls-4" d="M734.35,434.54c15.45,0,15.47-24,0-24s-15.46,24,0,24Z" transform="translate(-67.39 -133)"/><path class="cls-4" d="M719,429.35v29c0,15.44,24,15.47,24,0V444.09c0-15.45-24-15.47-24,0v14.22c0,15.44,24,15.47,24,0v-29c0-15.45-24-15.47-24,0Z" transform="translate(-67.39 -133)"/><path class="cls-4" d="M312.73,460.86A35.28,35.28,0,0,0,313,439.7c-1.8-6-8.5-10.41-14.76-8.38-6.07,2-10.31,8.32-8.38,14.76a8.31,8.31,0,0,1,.73,2.92c-.17-1.54-.2-1.61-.08-.2,0,.5,0,1,0,1.5s0,1-.07,1.51c.22-1.37.25-1.6.09-.71-.33,1.13-.55,2.26-.93,3.38-2,5.95,2.31,13.38,8.38,14.76a12.27,12.27,0,0,0,14.76-8.38Z" transform="translate(-67.39 -133)"/><path class="cls-4" d="M313.11,457.54a75.05,75.05,0,0,0-.54-29.07c-1.37-6.33-8.76-10-14.76-8.38-6.54,1.8-9.76,8.41-8.38,14.76a43.68,43.68,0,0,1,.54,16.31c-1.07,6.38,1.68,12.92,8.38,14.76,5.75,1.58,13.69-1.95,14.76-8.38Z" transform="translate(-67.39 -133)"/><path class="cls-4" d="M290.27,460a75,75,0,0,1-1.85,24c-3.7,15,19.44,21.39,23.14,6.38A96.22,96.22,0,0,0,314.27,460c-.48-6.47-5.17-12-12-12-6.12,0-12.48,5.5-12,12Z" transform="translate(-67.39 -133)"/><path class="cls-4" d="M289.64,464.71l-5.55,14.78c-2.22,5.89,2.45,13.41,8.38,14.76,6.82,1.55,12.39-2.08,14.76-8.38l5.56-14.78c2.21-5.89-2.46-13.42-8.39-14.77-6.82-1.55-12.39,2.08-14.76,8.39Z" transform="translate(-67.39 -133)"/><path class="cls-4" d="M311.48,433a63.43,63.43,0,0,1-1.21-20.61c.59-6.47-5.95-12-12-12-7,0-11.41,5.51-12,12a84,84,0,0,0,2.07,27c1.47,6.32,8.68,10.05,14.76,8.39A12.22,12.22,0,0,0,311.48,433Z" transform="translate(-67.39 -133)"/><path class="cls-4" d="M314.4,428.21l-1.49-41.94c-.55-15.4-24.55-15.47-24,0l1.49,41.94c.54,15.4,24.54,15.47,24,0Z" transform="translate(-67.39 -133)"/><path class="cls-4" d="M311.76,411.17a237.86,237.86,0,0,0,.15-44.17c-.58-6.45-5.1-12-12-12-6,0-12.58,5.51-12,12a237.86,237.86,0,0,1-.15,44.17c-.63,6.46,6,12,12,12,7,0,11.37-5.52,12-12Z" transform="translate(-67.39 -133)"/><path class="cls-4" d="M313.11,386.25a259.67,259.67,0,0,0-.71-35.17c-.57-6.45-5.11-12-12-12-6,0-12.58,5.51-12,12a259.67,259.67,0,0,1,.71,35.17c-.3,6.48,5.74,12,12,12,6.76,0,11.7-5.5,12-12Z" transform="translate(-67.39 -133)"/><path class="cls-4" d="M472,467.9V441.82c0-15.44-24-15.47-24,0V467.9c0,15.44,24,15.47,24,0Z" transform="translate(-67.39 -133)"/><path class="cls-4" d="M470.83,445.22a445.65,445.65,0,0,1-1.14-45.35c.41-15.45-23.59-15.44-24,0a445.65,445.65,0,0,0,1.14,45.35c.49,6.46,5.16,12,12,12,6.11,0,12.49-5.5,12-12Z" transform="translate(-67.39 -133)"/><path class="cls-4" d="M470.73,431.61q.63-24.39-.35-48.78a12.23,12.23,0,0,0-12-12c-6.3,0-12.26,5.49-12,12q1,24.39.35,48.78c-.4,15.45,23.6,15.44,24,0Z" transform="translate(-67.39 -133)"/><path class="cls-4" d="M470.16,391.89l-3.44-36.28c-.62-6.46-5.08-12-12-12-6,0-12.62,5.5-12,12l3.44,36.28c.61,6.45,5.07,12,12,12,6,0,12.61-5.51,12-12Z" transform="translate(-67.39 -133)"/><path class="cls-4" d="M469.25,376.06,469,340.9c-.12-15.43-24.12-15.47-24,0l.26,35.16c.12,15.44,24.12,15.47,24,0Z" transform="translate(-67.39 -133)"/><path class="cls-4" d="M468.14,364.73c-.46-11.73-1.63-23.35-3.2-35-.87-6.43-9.12-9.93-14.76-8.38-6.94,1.9-9.26,8.31-8.38,14.76,1.28,9.48,2,19.05,2.34,28.6a12.24,12.24,0,0,0,12,12c6.3,0,12.26-5.49,12-12Z" transform="translate(-67.39 -133)"/><path class="cls-4" d="M467.31,355.64l.88-27.18c.51-15.45-23.5-15.43-24,0l-.88,27.18c-.5,15.45,23.5,15.43,24,0Z" transform="translate(-67.39 -133)"/><path class="cls-4" d="M467.07,352.29a125.08,125.08,0,0,1-.67-23.85c.44-6.47-5.83-12-12-12-6.86,0-11.56,5.51-12,12a125.08,125.08,0,0,0,.67,23.85c.79,6.43,4.94,12,12,12,5.87,0,12.8-5.52,12-12Z" transform="translate(-67.39 -133)"/><path class="cls-4" d="M311.35,349.12a32.05,32.05,0,0,1,.62-12.88c1.53-6.07-2-13.3-8.38-14.76-6.23-1.42-13.12,1.87-14.77,8.38a58.85,58.85,0,0,0-.61,25.64c1.15,6.18,9,10.26,14.76,8.38,6.62-2.14,9.61-8.14,8.38-14.76Z" transform="translate(-67.39 -133)"/><path class="cls-4" d="M315.72,342.16l4.54-1.14a12,12,0,0,0,8.38-14.76,12.15,12.15,0,0,0-5.52-7.17,12.69,12.69,0,0,0-9.24-1.21L309.34,319A12,12,0,0,0,301,333.78a12.09,12.09,0,0,0,5.52,7.17,12.69,12.69,0,0,0,9.24,1.21Z" transform="translate(-67.39 -133)"/><path class="cls-4" d="M319.18,341.24l25-6.67c14.91-4,8.58-27.14-6.38-23.14l-25,6.67c-14.91,4-8.59,27.14,6.38,23.14Z" transform="translate(-67.39 -133)"/><path class="cls-4" d="M332.78,336.68l45.33-12.55C393,320,386.66,296.86,371.73,301L326.4,313.54c-14.87,4.11-8.55,27.27,6.38,23.14Z" transform="translate(-67.39 -133)"/><path class="cls-4" d="M314.68,341.4q16.24-3.84,32.77-6.25c6.42-.94,9.95-9.07,8.38-14.77-1.89-6.88-8.32-9.32-14.76-8.38q-16.53,2.42-32.77,6.25c-15,3.55-8.67,26.7,6.38,23.15Z" transform="translate(-67.39 -133)"/><path class="cls-4" d="M311.42,339.24A425.52,425.52,0,0,0,354.28,332c6.32-1.43,10-8.73,8.38-14.76-1.79-6.51-8.42-9.81-14.76-8.39a360.53,360.53,0,0,1-36.48,6.41c-6.43.78-12,5-12,12,0,5.89,5.52,12.78,12,12Z" transform="translate(-67.39 -133)"/><path class="cls-4" d="M352.05,331q26.76-4.44,53.2-10.61c6.31-1.47,10.05-8.69,8.38-14.76a12.2,12.2,0,0,0-14.76-8.38q-26.43,6.17-53.2,10.61c-6.4,1.06-10,9-8.38,14.76,1.86,6.79,8.34,9.45,14.76,8.38Z" transform="translate(-67.39 -133)"/><path class="cls-4" d="M373.79,325.69c15.44,0,15.47-24,0-24s-15.47,24,0,24Z" transform="translate(-67.39 -133)"/><path class="cls-4" d="M381.42,324.86l37.48-8.79c6.31-1.48,10.05-8.68,8.38-14.76a12.2,12.2,0,0,0-14.76-8.38L375,301.72c-6.31,1.48-10.05,8.68-8.38,14.76a12.2,12.2,0,0,0,14.76,8.38Z" transform="translate(-67.39 -133)"/><path class="cls-4" d="M409.86,320.75q18.54-4.77,37.39-8.1c6.39-1.13,10-8.94,8.38-14.77-1.85-6.73-8.35-9.51-14.76-8.38q-18.86,3.33-37.39,8.1c-14.94,3.85-8.61,27,6.38,23.15Z" transform="translate(-67.39 -133)"/><path class="cls-4" d="M438.2,312.75l10.26-1.94c6.19-1.17,10.27-8.95,8.39-14.76-2.14-6.61-8.14-9.64-14.77-8.39l-10.26,1.95c-6.18,1.16-10.27,8.94-8.38,14.76,2.13,6.6,8.14,9.63,14.76,8.38Z" transform="translate(-67.39 -133)"/><path class="cls-4" d="M467.14,336.38,465.78,299c-.57-15.4-24.57-15.47-24,0l1.36,37.41c.57,15.4,24.57,15.47,24,0Z" transform="translate(-67.39 -133)"/><path class="cls-4" d="M306.89,342.7c15.44,0,15.47-24,0-24s-15.47,24,0,24Z" transform="translate(-67.39 -133)"/><path class="cls-4" d="M307.83,340.06l9.07-3.41c3-1.12,5.51-2.67,7.17-5.51a12.2,12.2,0,0,0,1.21-9.25c-1.85-5.73-8.47-10.74-14.76-8.38l-9.07,3.41c-3,1.12-5.5,2.66-7.17,5.51a12.3,12.3,0,0,0-1.21,9.25c1.85,5.73,8.47,10.74,14.76,8.38Z" transform="translate(-67.39 -133)"/><path class="cls-4" d="M336,333.89c16.82-7.22,35.88-8.55,53.8-11.05a210,210,0,0,0,27.36-5.27c9-2.51,17.86-7.15,27.34-7.09v-24a776.44,776.44,0,0,0-134.84,25.73c-14.82,4.24-8.52,27.4,6.38,23.14A739.8,739.8,0,0,1,444.5,310.48c6.45-.66,12-5.05,12-12a12.15,12.15,0,0,0-12-12c-11.07-.08-20.83,4.08-31.22,7.22-9.73,2.95-19.8,4.6-29.86,6C363,302.55,343,305,323.88,313.17c-5.95,2.55-7.28,11.31-4.3,16.41,3.6,6.16,10.44,6.87,16.42,4.31Z" transform="translate(-67.39 -133)"/><path class="cls-4" d="M460.07,479.6l2.25-3.42a8.88,8.88,0,0,0,1.43-4.46,10.87,10.87,0,0,0-2.36-8.87,9.2,9.2,0,0,0-3.37-3.09,12.13,12.13,0,0,0-9.25-1.21l-2.86,1.21a12.11,12.11,0,0,0-4.31,4.31l-2.25,3.41a8.9,8.9,0,0,0-1.42,4.46,12.31,12.31,0,0,0,5.73,12,12.1,12.1,0,0,0,9.24,1.21l2.87-1.21a12.05,12.05,0,0,0,4.3-4.3Z" transform="translate(-67.39 -133)"/><path class="cls-4" d="M433.88,490.1c15.44,0,15.47-24,0-24s-15.47,24,0,24Z" transform="translate(-67.39 -133)"/><path class="cls-4" d="M452.05,465.25c-5.6,1.16-9.6,6.95-9.5,12.52a13.29,13.29,0,0,0,23.13,8.83,16.2,16.2,0,0,0,3.71-6.66c.24-.93.31-1.88.63-2.79L468.81,480l.26-.5a12.14,12.14,0,0,0-.94-13.33,12,12,0,0,0-12.61-4.3,38.39,38.39,0,0,0-14.19,7.79c-2.23,1.87-3.51,5.69-3.51,8.49a12.26,12.26,0,0,0,3.51,8.49,12.13,12.13,0,0,0,8.49,3.51,13.59,13.59,0,0,0,8.48-3.51l.93-.76-2.43,1.88a25.71,25.71,0,0,1,5.15-3L459.08,486c.93-.37,1.86-.69,2.82-1L448.35,467.4c-1.25,2.35-1.52,4.26-2.25,6.63l1.21-2.86a3.83,3.83,0,0,1-.48.89l1.88-2.43-.32.37,2.43-1.88a1.81,1.81,0,0,1-.8.47l6.06-1.63-.47.05,3.19.43-.29-.06,2.87,1.21-.25-.14,2.42,1.87-.2-.21,1.87,2.43-.15-.25,1.21,2.86a1.62,1.62,0,0,1-.16-.57l.43,3.19v-.29l-.43,3.19.07-.25L465,483.28l.13-.2-4.3,4.3.2-.14-2.87,1.21.28-.06c6.16-1.27,10.29-8.87,8.38-14.76-2.11-6.52-8.16-9.75-14.76-8.38Z" transform="translate(-67.39 -133)"/><path class="cls-4" d="M446.37,469c-2,1.7-4.12,1.65-6.64.92l-6.38,23.14c13.21,2.11,25.78-1.17,35.54-10.58,11.13-10.75-5.85-27.71-17-17-3.35,3.23-8.43,5-12.19,4.41-6.39-1-12.91,1.65-14.76,8.38a12.19,12.19,0,0,0,8.38,14.76c10.82,3.16,21.62.18,30-7.09,4.89-4.25,4.35-12.62,0-17-4.86-4.86-12.07-4.26-17,0Z" transform="translate(-67.39 -133)"/><path class="cls-4" d="M309.36,392a271.94,271.94,0,0,1,4.57-66c1.25-6.36-1.8-13-8.38-14.77-5.89-1.61-13.5,2-14.76,8.39A298.89,298.89,0,0,0,285.36,392c.32,6.48,5.29,12,12,12,6.25,0,12.33-5.49,12-12Z" transform="translate(-67.39 -133)"/><path class="cls-4" d="M310.51,331.88l-1.4-11.07c-.41-3.3-1.06-6-3.51-8.48a12.23,12.23,0,0,0-8.49-3.52c-6.16.28-12.41,5.29-12,12l.59,9.47c.39,6.26,5.24,12.31,12,12a12.21,12.21,0,0,0,12-12l.12-7.52c.1-6.28-5.59-12.28-12-12a12.23,12.23,0,0,0-12,12l-.12,7.52h24l-.59-9.47h-24l1.4,11.07c.42,3.31,1.07,6,3.52,8.49a12,12,0,0,0,17,0c2-2.17,3.9-5.41,3.51-8.49Z" transform="translate(-67.39 -133)"/><path class="cls-4" d="M321.42,330.93l3.79-.62-6.38-23.14-6.88,1.3,11.68,20.06c0,.13-.08.16-.21.08,5.55-2.19,9.55-6.85,8.6-13.17A12,12,0,0,0,320.23,305l-8.64,0v24l4.82-.35c5.93-.44,11-4.23,11.78-10.41a12,12,0,0,0-8.59-13.17A24.48,24.48,0,0,0,300,307.78a12.27,12.27,0,0,0-5.52,13.55c1.3,4.73,6.4,9.33,11.57,8.81A254.87,254.87,0,0,0,337.71,325c6.32-1.45,10.05-8.71,8.38-14.76-1.87-6.83-8.33-9.4-14.76-8.38l-6.16,1c-13.25,2.09-10.28,24.77,3.19,23.57a142.21,142.21,0,0,0,32.54-6.53c6.14-2,10.16-8.28,8.38-14.76-1.86-6.76-8.35-9.49-14.76-8.38l-11.69,2c-6.39,1.1-10,9-8.38,14.77,1.9,6.9,8.32,9.29,14.76,8.38Q402.58,314.35,455.1,302l-14.76-14.76q-1.87,9.8-3.3,19.65c-.94,6.4,1.58,12.89,8.38,14.76,5.64,1.55,13.82-1.93,14.76-8.38s2.05-13.12,3.3-19.65c1.73-9-5.4-17-14.76-14.76q-52.47,12.38-105.89,19.93l6.38,23.15,11.69-2-6.38-23.14a115,115,0,0,1-26.16,5.67L331.55,326l6.16-1-6.38-23.14a204.25,204.25,0,0,1-25.3,4.25l6.06,22.36c.79-1.06,1.25-1.27,1.38-.61-2.24-.16-2.33,0-.25.42l3.19-23.57-4.82.35c-6.46.48-12,5.17-12,12a12.15,12.15,0,0,0,12,12l8.64,0L317,305.47a35.84,35.84,0,0,0-10.38,6.09c-4.05,3.34-4.38,10.27-1.88,14.54,2.83,4.83,8.28,6.52,13.55,5.52l6.88-1.31c6.37-1.21,10-8.88,8.38-14.76-1.86-6.8-8.34-9.44-14.76-8.38l-3.79.62c-6.4,1.06-10,9-8.38,14.76,1.86,6.8,8.34,9.44,14.76,8.38Z" transform="translate(-67.39 -133)"/><path class="cls-4" d="M347.71,330.23c15.44,0,15.47-24,0-24s-15.47,24,0,24Z" transform="translate(-67.39 -133)"/><path class="cls-4" d="M347.71,330.23c15.44,0,15.47-24,0-24s-15.47,24,0,24Z" transform="translate(-67.39 -133)"/><path class="cls-4" d="M299,398.26c15.45,0,15.47-24,0-24s-15.47,24,0,24Z" transform="translate(-67.39 -133)"/><path class="cls-4" d="M287,386.26v12.55c0,15.44,24,15.47,24,0v-4.89c0-15.44-24-15.47-24,0v15c0,15.44,24,15.47,24,0v-15c0-15.44-24-15.47-24,0v4.89c0,15.44,24,15.47,24,0V386.26c0-15.44-24-15.47-24,0Z" transform="translate(-67.39 -133)"/><path class="cls-4" d="M288.46,329.76a27.32,27.32,0,0,0-1.61,10.94c.76,13.93,18.8,15.76,23.57,3.19a28.68,28.68,0,0,0-.1-20.4c-1.79-4.52-4.85-8-10-8.59-4.43-.53-9.89,1.39-12,5.73-5.57,11.64-1.5,23.3-.8,35.52s0,24.59-.66,36.85c-.36,6.48,5.77,12,12,12,6.8,0,11.64-5.5,12-12,.61-11,1.22-22.05.83-33.08a166.71,166.71,0,0,0-1.55-17.29c-.33-2.43-1.94-8.13-1.1-9.89l-21.93-2.87c1.25,3.15,1.31,4.46.1,7.64l23.57,3.19a9.16,9.16,0,0,1,.75-4.56c2.26-6.08-2.52-13.15-8.38-14.76-6.71-1.85-12.49,2.28-14.76,8.38Z" transform="translate(-67.39 -133)"/><path class="cls-4" d="M447.49,708.94c15.44,0,15.47-24,0-24s-15.47,24,0,24Z" transform="translate(-67.39 -133)"/><path class="cls-4" d="M445.22,711.2c15.44,0,15.47-24,0-24s-15.47,24,0,24Z" transform="translate(-67.39 -133)"/><path class="cls-4" d="M79,270.13c15.45,0,15.47-24,0-24s-15.46,24,0,24Z" transform="translate(-67.39 -133)"/><path class="cls-4" d="M297.05,442.33l-1-2.59c-2.16-5.42-9.53-3.34-8.68,2.4l.61,4.13,8.68-2.39c-4-16.28-1.1-33.3-4.24-49.74-1.09-5.69-9.77-3.28-8.68,2.39,3.15,16.45.18,33.38,4.24,49.74,1.42,5.76,9.5,3.18,8.68-2.39l-.61-4.14-8.68,2.4,1,2.58c2.11,5.32,10.82,3,8.68-2.39Z" transform="translate(-67.39 -133)"/><path class="cls-4" d="M289.31,398.13c5.8,0,5.81-9,0-9s-5.8,9,0,9Z" transform="translate(-67.39 -133)"/><path class="cls-4" d="M289.31,400.4c5.8,0,5.81-9,0-9s-5.8,9,0,9Z" transform="translate(-67.39 -133)"/><path class="cls-4" d="M293.82,395.9l-.13-2.09c-.15-2.76-2.76-5.31-5.69-4.34l-.25.08c-1.68.56-3.55,2.35-3.3,4.34s.74,3.55,2.6,4.43c1.67.79,4.14.91,5.45-.7,2.54-3.1,1.57-6.35,1.2-10.11-.56-5.65-9.18-5.9-9,0l.11,3.51c.17,5.82,8.64,5.76,9,0a18.24,18.24,0,0,0-.67-6.15c-1.28-4.73-9.52-4-8.84,1.19L285,391l8.84-1.19a115.64,115.64,0,0,1-1.64-33.52c.53-5.76-8.47-5.72-9,0a124.36,124.36,0,0,0,2,35.91c1,4.9,9.5,3.86,8.84-1.2l-.65-4.92-8.84,1.2a7,7,0,0,1,.35,3.76h9l-.11-3.51h-9a44.85,44.85,0,0,1,.53,6.43l1.32-3.19-.41.5,5.45-.7-.32-.15,2.23,3.88-.05-.39-3.3,4.34.24-.08-5.7-4.34.13,2.09c.33,5.76,9.33,5.79,9,0Z" transform="translate(-67.39 -133)"/><path class="cls-4" d="M292.22,357.8a188.73,188.73,0,0,1-2.57-41.25c.26-5.79-8.74-5.78-9,0a200.17,200.17,0,0,0,2.89,43.65c1,5.69,9.67,3.28,8.68-2.4Z" transform="translate(-67.39 -133)"/><path class="cls-4" d="M291.69,320.47l-1.28-8.71c-.32-2.18-3-3.52-4.94-3.22s-4.1,2.15-3.9,4.42l.32,3.57a4.61,4.61,0,0,0,4.5,4.5c2.26,0,4.71-2.06,4.5-4.5l-.32-3.57-8.84,1.19,1.28,8.71c.36,2.41,3.4,3.73,5.54,3.14,2.58-.7,3.5-3.12,3.14-5.53Z" transform="translate(-67.39 -133)"/><path class="cls-4" d="M295.53,319.23l1.13-.57a4.34,4.34,0,0,0,2.15-4.49,3.37,3.37,0,0,0-.54-1.67l-.7-.91a4.52,4.52,0,0,0-2-1.16l-1.2-.16a4.43,4.43,0,0,0-2.27.62l-1.13.56a3.46,3.46,0,0,0-1.27,1.16,3.42,3.42,0,0,0-.8,1.53,3.34,3.34,0,0,0-.08,1.8,3.26,3.26,0,0,0,.53,1.67l.7.91a4.52,4.52,0,0,0,2,1.16l1.2.16a4.52,4.52,0,0,0,2.27-.61Z" transform="translate(-67.39 -133)"/><path class="cls-4" d="M293.93,318.08l4.53-1.15a4.54,4.54,0,0,0,3.14-5.53,4.59,4.59,0,0,0-5.54-3.15l-4.53,1.15a4.5,4.5,0,1,0,2.4,8.68Z" transform="translate(-67.39 -133)"/><path class="cls-4" d="M293.29,319.28l2.15-1.31c3.25-2,2.74-7.23-1.07-8.23a14.24,14.24,0,0,0-4.4-.54l1.2,8.84a12.88,12.88,0,0,0,5.05-2,4.53,4.53,0,0,0-2.27-8.38l-2.25-.13,1.19,8.84a4.65,4.65,0,0,1,2.52-.41v-9l-5.06.07v9c4.76-.09,9.07-2.06,13.77-2.37s9.3.26,14-.37C327.5,312,336.48,308.72,346,309c5.79.19,5.78-8.81,0-9-9.37-.3-18.17,2.59-27.31,4.11-4.92.82-9.66.24-14.58.48-4.71.24-9.09,2.29-13.77,2.37-5.78.11-5.8,9.08,0,9l5.06-.07c5.79-.08,5.8-9,0-9a16.05,16.05,0,0,0-4.91.73c-4.92,1.54-3.87,8.55,1.2,8.84l2.25.13-2.27-8.39a4.44,4.44,0,0,1-2.91,1.13c-5,.89-3.8,8.93,1.2,8.84l2,.22-1.07-8.22-2.16,1.31c-4.93,3-.42,10.79,4.55,7.77Z" transform="translate(-67.39 -133)"/><path class="cls-4" d="M438.7,311.39a77.64,77.64,0,0,1,.31,8.76h9l-.08-4.29-8.84,1.2a78.28,78.28,0,0,1,1.7,14.06c.18,5.78,9.18,5.81,9,0l-.09-3-8.84,1.19c4.22,31,4.34,62.54,5.43,93.78.21,5.78,9.21,5.8,9,0-1.12-32.07-1.42-64.32-5.75-96.17-.69-5.05-9-3.8-8.84,1.2l.09,3h9a92.22,92.22,0,0,0-2-16.46c-1.07-5-8.93-3.84-8.84,1.2l.08,4.29c.11,5.8,8.87,5.8,9,0a77.64,77.64,0,0,0-.31-8.76c-.53-5.72-9.54-5.77-9,0Z" transform="translate(-67.39 -133)"/><path class="cls-4" d="M286,393.07l-.09,1.54,7.68-3.18-1.44-1.57c-3-3.33-8.79.15-7.52,4.38l.2.86,6.77-3.88c-.36-.27,1.09-11.17,1.19-12.68h-9l-.25,6.63h9a120.73,120.73,0,0,1,.24-23.28c.62-5.75-8.38-5.71-9,0a120.73,120.73,0,0,0-.24,23.28c.49,5.71,8.78,5.87,9,0l.25-6.63c.22-5.82-8.61-5.73-9,0-.47,6.86-3,15.68,3.27,20.45,2.72,2.07,6.92-.73,6.77-3.89a12.75,12.75,0,0,0-.52-3.25l-7.52,4.38,1.43,1.57c2.8,3.06,7.45.48,7.69-3.19l.09-1.54c.37-5.79-8.63-5.77-9,0Z" transform="translate(-67.39 -133)"/><path class="cls-4" d="M292.25,367.54q-1.11-11.61-1.81-23.23c-.35-5.76-9.36-5.8-9,0q.71,11.63,1.81,23.23c.54,5.71,9.54,5.77,9,0Z" transform="translate(-67.39 -133)"/><path class="cls-4" d="M453.38,290.23l.56.57a3.45,3.45,0,0,0,1.45.93,3.36,3.36,0,0,0,1.74.38,3.33,3.33,0,0,0,1.73-.38,3.45,3.45,0,0,0,1.45-.93l.7-.91a4.56,4.56,0,0,0,.62-2.28l-.16-1.19a4.56,4.56,0,0,0-1.16-2l-.57-.56a3.47,3.47,0,0,0-1.45-.94,4.13,4.13,0,0,0-3.46,0,3.41,3.41,0,0,0-1.45.94l-.71.91a4.49,4.49,0,0,0-.61,2.27l.16,1.19a4.41,4.41,0,0,0,1.16,2Z" transform="translate(-67.39 -133)"/><path class="cls-4" d="M454.29,293.81c5.79,0,5.8-9,0-9s-5.8,9,0,9Z" transform="translate(-67.39 -133)"/><path class="cls-4" d="M455.13,291.89c-.48-.6.4.74.49.89.41.76,0-.37.18.54,0,.05.35,1.42.19.5a7.69,7.69,0,0,1,0,1.73,4.53,4.53,0,0,0,4.5,4.5,4.6,4.6,0,0,0,4.5-4.5,14.62,14.62,0,0,0-3.53-10c-1.48-1.84-4.84-1.65-6.36,0-1.8,2-1.58,4.4,0,6.37Z" transform="translate(-67.39 -133)"/><path class="cls-4" d="M470.54,437.91a10.83,10.83,0,0,0,.72-4.37,4.5,4.5,0,1,0-9,0v3.74a4.5,4.5,0,0,0,9,0v-3.74h-9a7.74,7.74,0,0,1-.06,1.36l.16-1.2a8.18,8.18,0,0,1-.5,1.82,4.53,4.53,0,0,0,.45,3.47,4.65,4.65,0,0,0,2.69,2.07,4.57,4.57,0,0,0,3.47-.46,5.25,5.25,0,0,0,2.07-2.69Z" transform="translate(-67.39 -133)"/><path class="cls-4" d="M469,377.29a40.62,40.62,0,0,0,0-13c-.35-2.18-3-3.52-4.94-3.22-2.39.36-3.6,2.13-3.9,4.42a15.32,15.32,0,0,0,.67,6.62c1.78,5.49,10.48,3.14,8.68-2.39a8.89,8.89,0,0,1-.35-4.23l-8.84,1.2a26.35,26.35,0,0,1,0,8.22c-.38,2.4.62,4.84,3.14,5.54,2.14.59,5.15-.73,5.54-3.14Z" transform="translate(-67.39 -133)"/><path class="cls-4" d="M456.62,327.3a19.31,19.31,0,0,0,.74,6.64c1.37,4.85,8.89,3.94,8.84-1.2l-.12-14.5c0-4.94-7.74-6.29-8.84-1.2a18,18,0,0,0,.11,8.65c1.24,4.93,8.85,3.87,8.84-1.2l0-5.1c0-5.82-8.7-5.75-9,0a33.68,33.68,0,0,0,.9,9.54c.95,4.08,8.05,4.49,8.68,0a41.26,41.26,0,0,0-.34-14c-.86-4.34-7.75-4.25-8.68,0a16.42,16.42,0,0,0-.37,5.76c.69,5.67,8.55,5.89,9,0a71.78,71.78,0,0,0-.85-17.26c-.93-5.7-9.61-3.28-8.68,2.39a62.2,62.2,0,0,1,.53,14.87h9a6.75,6.75,0,0,1,.05-3.37h-8.68a27.52,27.52,0,0,1,.34,9.23h8.68a24.83,24.83,0,0,1-.58-7.14h-9l0,5.1,8.83-1.2a5.94,5.94,0,0,1-.1-3.86l-8.84-1.19.12,14.5,8.84-1.19a7.92,7.92,0,0,1-.42-4.25c.36-5.78-8.64-5.76-9,0Z" transform="translate(-67.39 -133)"/><path class="cls-4" d="M467,316.55a136.42,136.42,0,0,0,.28-14c-.18-5.78-8.83-5.8-9,0v.23l8.38,2.27a23.53,23.53,0,0,0-.57-8.06c-1.33-5.63-10-3.25-8.68,2.39a16.12,16.12,0,0,1,.25,5.67c-.49,4.45,6.45,6.1,8.39,2.27a10.61,10.61,0,0,0,1.24-4.77h-9a136.42,136.42,0,0,1-.28,14c-.41,5.78,8.59,5.75,9,0Z" transform="translate(-67.39 -133)"/><path class="cls-4" d="M465,291.58l-1.29-2a4.6,4.6,0,0,0-3.89-2.23,4.39,4.39,0,0,0-3.88,2.23,9.55,9.55,0,0,0-1,4.84,4.9,4.9,0,0,0,1.32,3.18,4.49,4.49,0,0,0,6.36,0,4.38,4.38,0,0,0,1.32-3.18,5.62,5.62,0,0,1,0-1.23l-.16,1.2a6.15,6.15,0,0,1,.32-1.19l-.45,1.08.07-.16h-7.77l1.29,2a4.72,4.72,0,0,0,2.69,2.07,4.62,4.62,0,0,0,3.47-.45,4.52,4.52,0,0,0,1.61-6.16Z" transform="translate(-67.39 -133)"/><path class="cls-4" d="M453.27,284.86l.77,4.08a4.45,4.45,0,0,0,3.74,3.22,4.6,4.6,0,0,0,4.48-2.14,7,7,0,0,0,.9-5.6,4.51,4.51,0,0,0-8.84,1.2v4.26a4.54,4.54,0,0,0,4.5,4.5,4.59,4.59,0,0,0,4.5-4.5v-4.26l-8.84,1.2a1.42,1.42,0,0,1,.08-1.05c.25-.69.23-.79-.07-.3l8.23,1.08-.78-4.08a4.53,4.53,0,0,0-5.53-3.15,4.61,4.61,0,0,0-3.14,5.54Z" transform="translate(-67.39 -133)"/><path class="cls-4" d="M455.93,287.62l.79,8.73a4.66,4.66,0,0,0,3.31,4.34c1.75.48,4.3-.27,5.08-2.07a14.49,14.49,0,0,0-.06-12.39c-.81-1.78-3.31-2.55-5.08-2.06a4.61,4.61,0,0,0-3.31,4.34l-.1,8.17c-.07,5.8,8.93,5.8,9,0l.1-8.17-8.38,2.27a4.53,4.53,0,0,1,.06,3.3l8.38,2.27-.79-8.73a4.62,4.62,0,0,0-4.5-4.5c-2.27,0-4.73,2.07-4.5,4.5Z" transform="translate(-67.39 -133)"/><path class="cls-4" d="M455.11,283.63l1.15,12.31c.55,5.86,8.28,5.71,9,0a47.3,47.3,0,0,0,0-11.71c-.62-4.94-7.06-6.22-8.84-1.19a19.84,19.84,0,0,0-.68,10.28c.4,2.4,3.36,3.74,5.53,3.14,2.54-.69,3.55-3.13,3.14-5.53a10.56,10.56,0,0,1,.69-5.5l-8.84-1.2a47.3,47.3,0,0,1,0,11.71h9l-1.15-12.31a4.61,4.61,0,0,0-4.5-4.5c-2.26,0-4.72,2.06-4.5,4.5Z" transform="translate(-67.39 -133)"/><path class="cls-4" d="M458.86,294v5.29a4.5,4.5,0,1,0,9,0V294a4.5,4.5,0,0,0-9,0Z" transform="translate(-67.39 -133)"/><path class="cls-4" d="M459.78,290.27l.71,14.35c.29,5.76,9.29,5.79,9,0l-.71-14.35c-.29-5.76-9.29-5.8-9,0Z" transform="translate(-67.39 -133)"/><path class="cls-4" d="M457.82,289.13c-.14,6.85-1,14.16.91,20.83,1.58,5.56,10.27,3.2,8.68-2.39-1.66-5.81-.71-12.46-.59-18.44.11-5.8-8.89-5.8-9,0Z" transform="translate(-67.39 -133)"/><path class="cls-4" d="M459.9,302.63a69.66,69.66,0,0,0-.28,19.24c.74,5.65,8.54,5.91,9,0,.41-5.2.58-10.39.5-15.6-.09-6-8.28-5.58-9,0a265,265,0,0,0-2.2,32.7c0,5.07,7.51,6.13,8.84,1.2,1.75-6.46,1.56-12.91,1.07-19.53-.42-5.71-9-5.87-9,0v15.24c0,5,7.64,6.22,8.84,1.2a82.19,82.19,0,0,0,2.26-18.48c0-5.07-7.51-6.12-8.84-1.19a39.17,39.17,0,0,0-1.38,11.25c.14,5.93,8.33,5.61,9,0,1-8.17-.84-16-1.64-24.11-.78-7.87,1.93-15.71.23-23.42-1.25-5.65-9.93-3.26-8.68,2.39.83,3.77-.28,7.45-.65,11.2a53.13,53.13,0,0,0,.3,11.62c.88,7.47,2.35,14.77,1.44,22.32h9a30.39,30.39,0,0,1,1.06-8.86l-8.84-1.2A71.46,71.46,0,0,1,459,334.69l8.84,1.19V320.64h-9c.43,5.79.79,11.48-.75,17.14l8.84,1.19a265,265,0,0,1,2.2-32.7h-9c.08,5.21-.09,10.4-.5,15.6h9a61.74,61.74,0,0,1,0-16.85c.82-5.66-7.85-8.11-8.68-2.39Z" transform="translate(-67.39 -133)"/><path class="cls-4" d="M451.71,287.8l2.28-.7-4.38-7.52-.84.71c-3.54,3,.26,8.66,4.37,7.52l.6-.16h-2.39c2.19.52,4.53.7,6.28-1a5,5,0,0,0,.56-6.17c-.82-1.2-2.29-2.44-3.88-2.23l-.32,0c-2.41.32-4.5,1.84-4.5,4.5,0,2.28,2.07,4.71,4.5,4.5l9-.74a4.62,4.62,0,0,0,4.5-4.5c0-2.28-2.07-4.7-4.5-4.5l-9,.74v9l.32,0L450.42,285l.23.33-.46-3.46-.08.38,3.14-3.14-.58.19h2.39a8.41,8.41,0,0,0-4.31-.14l4.38,7.52.84-.71c3.48-2.95-.24-8.79-4.37-7.52l-2.28.7c-5.53,1.69-3.17,10.38,2.39,8.68Z" transform="translate(-67.39 -133)"/><path class="cls-4" d="M459.72,311.82l-.82,28.74c-.14,5.12,7.49,6.05,8.84,1.2a46.87,46.87,0,0,0,1.75-13.48c-.1-5.89-8.45-5.67-9,0a439,439,0,0,0-2,52.67c.1,4.87,7.91,6.38,8.84,1.2a52.61,52.61,0,0,0,.63-15.44h-9l1.91,14.54c.73,5.54,9.08,6,9,0l-.19-14.55c-.08-5.82-8.73-5.77-9,0a56.84,56.84,0,0,0,.18,7.83c.53,5.72,9.54,5.78,9,0a56.84,56.84,0,0,1-.18-7.83h-9l.19,14.55h9l-1.91-14.54c-.74-5.62-9.65-5.8-9,0a44.26,44.26,0,0,1-.31,13.05l8.84,1.19a439,439,0,0,1,2-52.67h-9a37.73,37.73,0,0,1-1.43,11.08l8.84,1.2.82-28.74c.16-5.79-8.84-5.79-9,0Z" transform="translate(-67.39 -133)"/><path class="cls-5" d="M706.9,236.8A209.46,209.46,0,0,0,699,315.08" transform="translate(-67.39 -133)"/><path class="cls-4" d="M701.11,235.21A218.44,218.44,0,0,0,693,315.08c.64,7.64,12.65,7.71,12,0a209.14,209.14,0,0,1,7.72-76.68c2.18-7.43-9.39-10.6-11.57-3.19Z" transform="translate(-67.39 -133)"/></g></svg>