<?xml version="1.0" encoding="utf-8"?>
<!-- Generator: Adobe Illustrator 24.1.1, SVG Export Plug-In . SVG Version: 6.00 Build 0)  -->
<svg version="1.1" id="Capa_1" xmlns="http://www.w3.org/2000/svg" xmlns:xlink="http://www.w3.org/1999/xlink" x="0px" y="0px"
	 viewBox="0 0 768 768" style="enable-background:new 0 0 768 768;" xml:space="preserve">
<style type="text/css">
	.st0{fill:#FF8B00;}
	.st1{fill:none;stroke:#FF8B00;stroke-width:24;stroke-miterlimit:10;}
	.st2{fill:#FF8B00;stroke:#FF8B00;stroke-width:9;stroke-miterlimit:10;}
	.st3{fill:none;stroke:#FF8B00;stroke-width:9;stroke-miterlimit:10;}
</style>
<g>
	<path class="st0" d="M630.57,82v619H168.92V82H630.57 M661.57,51H137.92v681h523.65V51L661.57,51z"/>
</g>
<g>
	<line class="st1" x1="631" y1="82" x2="384" y2="211"/>
</g>
<line class="st1" x1="389" y1="580" x2="392" y2="199"/>
<line class="st1" x1="384" y1="566" x2="639" y2="715"/>
<g>
	<g>
		<path class="st0" d="M236.57,248.57c1.93,0,1.93-3,0-3C234.64,245.57,234.64,248.57,236.57,248.57L236.57,248.57z"/>
	</g>
</g>
<line class="st2" x1="247" y1="403.5" x2="358" y2="403.5"/>
<line class="st3" x1="249.5" y1="402.5" x2="287.5" y2="377.5"/>
<line class="st3" x1="248.78" y1="403.39" x2="288.18" y2="426.14"/>
<g>
	<g>
		<path class="st0" d="M312.52,618.27c16.41-1.7,32.88-2.12,49.35-1.26c6.43,0.33,6.41-9.67,0-10c-16.47-0.86-32.94-0.44-49.35,1.26
			C306.19,608.93,306.12,618.93,312.52,618.27L312.52,618.27z"/>
	</g>
</g>
<g>
	<g>
		<path class="st0" d="M359.34,636.99c16.41-1.7,32.88-2.12,49.35-1.26c6.43,0.33,6.41-9.67,0-10c-16.47-0.86-32.94-0.44-49.35,1.26
			C353.01,627.64,352.94,637.65,359.34,636.99L359.34,636.99z"/>
	</g>
</g>
<g>
	<g>
		<path class="st0" d="M288.93,655.63c16.41-1.7,32.88-2.12,49.35-1.26c6.43,0.33,6.41-9.67,0-10c-16.47-0.86-32.94-0.44-49.35,1.26
			C282.6,646.28,282.53,656.29,288.93,655.63L288.93,655.63z"/>
	</g>
</g>
<g>
	<g>
		<path class="st0" d="M335.76,674.34c16.41-1.7,32.88-2.12,49.35-1.26c6.43,0.33,6.41-9.67,0-10c-16.47-0.86-32.94-0.44-49.35,1.26
			C329.42,665,329.35,675.01,335.76,674.34L335.76,674.34z"/>
	</g>
</g>
<g>
	<g>
		<path class="st0" d="M414.93,663.63c16.41-1.7,32.88-2.12,49.35-1.26c6.43,0.33,6.41-9.67,0-10c-16.47-0.86-32.94-0.44-49.35,1.26
			C408.6,654.28,408.53,664.29,414.93,663.63L414.93,663.63z"/>
	</g>
</g>
<g>
	<g>
		<path class="st0" d="M461.76,682.34c16.41-1.7,32.88-2.12,49.35-1.26c6.43,0.33,6.41-9.67,0-10c-16.47-0.86-32.94-0.44-49.35,1.26
			C455.42,673,455.35,683.01,461.76,682.34L461.76,682.34z"/>
	</g>
</g>
<g>
	<g>
		<path class="st0" d="M441.23,371.36c2.67-4.36,0.89-10.24-3.46-12.79c-4.73-2.77-10.38-0.28-12.24,4.66
			c-1.53,4.07-0.04,10.17,4.66,11.47c5.24,1.44,9.59-4.76,9.56-9.34c-0.01-2.23-0.75-4.53-2.28-6.18c-2.55-2.74-6.46-2.01-9.06,0.25
			c-4.27,3.72-4.5,11.21,1.65,13.06c4.5,1.35,9.72-0.87,11.92-5.01c2.85-5.36-1.73-10.47-7.28-10.27
			c-5.68,0.21-10.27,6.14-7.3,11.53c2.7,4.91,9.6,6.24,13.64,2.22c1.2-1.19,1.86-3.22,1.29-4.86c-1.45-4.13-5-6.74-9.39-6.93
			c-4.51-0.19-10.44,3.32-9.08,8.53c2.19,8.37,14.49,9.79,18.77,2.43c0.89-1.54,0.92-3.51,0-5.05c-3.84-6.45-12.69-6.15-16.94-0.41
			c-1.26,1.7-0.72,4.68,0.78,6.06c6.44,5.95,16.58-0.17,14.99-8.54c-0.31-1.62-1.92-3.13-3.49-3.49c-6.33-1.45-13.59,2.77-13.4,9.82
			c0.19,6.83,7.76,11.99,13.94,8.42c5.5-3.18,6.35-11.99,0.57-15.33c-5.64-3.26-12.79,0.98-13.09,7.27c-0.08,1.71,1,3.49,2.48,4.32
			c5.65,3.17,13.2,0.2,14.81-6.2c0.48-1.92-0.27-4.78-2.3-5.65c-6.32-2.69-13.7,0.04-15.68,6.96c-0.72,2.53,0.88,5.53,3.49,6.15
			c8.61,2.04,15.2-6.95,11.71-14.69c-0.66-1.47-2.74-2.6-4.32-2.48c-6.69,0.5-12.39,6-11.96,12.98c0.13,2.15,1.45,4.29,3.67,4.82
			c5.3,1.28,10.45-2.97,10.3-8.44c-0.16-5.98-6.72-8.87-11.66-6.13c-5.03,2.79-5.66,9.3-1.35,13.03c3.64,3.16,9.3,3.68,13.28,0.84
			c9.3-6.65,0.55-22.96-10.04-17.14c-4.48,2.46-7.52,9.15-4.04,13.66c3.56,4.61,11.97,3.41,15.25-0.79
			c3.58-4.57,2.03-12.46-4.02-14.06c-2.93-0.77-6.08,0.37-8.11,2.55c-2.38,2.57-2.49,5.79-1.16,8.86c0.73,1.68,2.69,2.3,4.32,2.48
			c4.19,0.44,8.27-2.74,9.12-6.8c0.55-2.64-0.77-5.4-3.49-6.15c-2.48-0.68-5.6,0.84-6.15,3.49c-0.17,0.79-0.35,0.58,0.27-0.17
			c0.24-0.3,1.63-0.22,0.25-0.36c1.44,0.83,2.88,1.65,4.32,2.48c0.16,0.36,0.22,2.55-0.05,2.88c-0.42,0.52-1.4,0.58-1.98,0.4
			c-0.73-0.22-1.05-0.73-1.38-1.36c-0.24-0.46,0.01,0.15,0.03,0.12c0.07-0.11,0.02-0.3,0.14-0.42c0.48-0.44,0.54-0.07,0.21-0.26
			c-0.16-0.1-0.86-0.08-1.13-0.22c0.77,1,1.53,1.99,2.3,2.99c-0.45-1.15-0.16,0.5-0.06-0.42c-0.02,0.18,0.41-0.17,0.35-0.19
			c-0.11-0.04-0.87-0.02-1.2-0.1c0.84,0.2,0.32,0.34,0.07-0.04c0.63,1-0.03-0.39,0.28,0.76c-0.2-0.74,0.01,0.63-0.06,0.1
			c-0.03-0.23,0.15-0.51,0.38-0.55c0.4-0.07-0.76,0.45-0.21,0.14c0.46-0.26-0.58-0.02-0.1,0.07c-0.18-0.04-0.95-0.21-0.88-0.31
			c0.24-0.35,0.4,2.7,0.31,1.22c0.11,1.8-1.18,3.21-3.02,1.4c-1.53-1.51-0.68-3.73,1.57-3.19c1.22,1.61,2.45,3.21,3.67,4.82
			c-0.07-1.19,0.49-2.87,1.96-2.98c-1.44-0.83-2.88-1.65-4.32-2.48c-0.01-0.02-0.38-0.6-0.19-0.62c0.37-0.05-0.34,0.43-0.07,0.25
			c-0.29,0.2-0.62,0.36-0.77,0.58c0.12-0.17,0.43-0.25,0.62-0.2c1.16,2.05,2.33,4.1,3.49,6.15c0.18-0.64,0.14-0.46,0.71-0.75
			c0.11-0.05,0.62-0.09,0.28-0.23c-0.77-1.88-1.53-3.76-2.3-5.65c-0.18,0.7-0.05,0.26-0.07,0.26c0.01-0.06,0.05-0.11,0.11-0.13
			c0.22-0.16,0.08-0.09-0.42,0.22c-0.07-0.04,0.4-0.14,0.37-0.12c-0.73,0.48-0.59-0.27-0.11,0c0.83,1.44,1.65,2.88,2.48,4.32
			c-0.05,1.01-0.39,1.21-1.03,1.64c-0.5,0-0.44,0,0.18,0c-0.8,0.01-1.4-0.33-1.81-1c-0.31-0.59-0.33-1.02,0.35-1.29
			c2.72-1.08,0.5,0.08,0.99,0.13c-0.04,0-0.1,0.27-0.16,0.26c-0.38-0.03,0.87-0.26,0.81-0.27c-1.16-1.16-2.33-2.33-3.49-3.49
			c-0.12-0.63,0.12-1.09,0.29-1.62c-0.02,0.06,0.91-1.06-0.08,0.03c0.4-0.44,0.04,0.26-0.22,0.02c0.19,0.18,1.33,0.02,1.73,0.39
			c0.26,2.02,0.52,4.04,0.78,6.06c-0.21,0.28-0.3,0.3-0.54,0.53c0.24-0.23,0.81-0.1,0.07-0.07c0,0,0.21,0.25,0.13-0.03
			c0.15,0.09,0.29,0.18,0.44,0.26c-0.17-0.06-0.31-0.15-0.44-0.27c0-1.68,0-3.36,0-5.05c-0.45,0.77,0.28,0.07,0.54-0.22
			c-0.23,0.26-0.48,0.09-0.86,0.12c0.05,0-0.29-0.11-0.28-0.08c-0.29-0.62,0.27,0.86,0.05-0.1c-0.17,1.28-0.34,2.57-0.5,3.85
			c-0.02,0.03-0.57,0.73-0.66,0.57c0.59-0.14,0.64-0.16,0.15-0.06c0.56,0.02,0.67,0.02,0.34-0.01c-0.04-0.04,0.29,0.08,0.26,0.14
			c0.3,0.18,0.28,0.17-0.05-0.03c-0.15-0.14-0.25-0.31-0.3-0.51c0.43-1.62,0.86-3.24,1.29-4.86c0.62-0.62,1.31-0.46,1.98-0.28
			c-0.71-0.47-0.61-0.3,0.32,0.5c0.33,0.73,0.28,1.49-0.15,2.3c-0.6,0.89-1.85,1.03-2.44-0.03c-0.17-1.28-0.34-2.57-0.5-3.85
			c-0.15,0.62-0.05,0.33-0.07,0.32c0.01-0.05,0.04-0.09,0.09-0.11c0.21-0.15,0.06-0.07-0.45,0.24c0.5,0.27-0.53-0.53,0.14-0.14
			c0.77,1,1.53,1.99,2.3,2.99c0.07,0.33-0.07,0.73-0.14,1.02c-0.06,0.27-1.62,0.6-0.14,0.29c-1.62-0.43-3.24-0.86-4.86-1.29
			c-0.15-0.16-0.17-0.48-0.28-0.6c-0.17-0.19-0.08,0.71-0.02,0.07c0.04-0.41,0.1-0.03-0.13,0.24c0.18-0.21,0.27-0.41,0.57-0.5
			c1.28,0.17,2.57,0.34,3.85,0.5c0.41,0.3,0.6,0.7,0.86,1.08c0.3,0.43-0.02,0-0.04,0.03c-0.22,0.47,0.42-0.49,0.07-0.17
			c-0.2,0.18-0.16,0.44-0.47,0.6c-0.36,0.19-0.89,0.28-1.3,0.28c-0.9-0.02-0.61-0.93-0.41-0.07c-0.06-0.26-0.41-0.61-0.18-0.98
			C429.22,371.82,437.87,376.85,441.23,371.36L441.23,371.36z"/>
	</g>
</g>
<g>
	<g>
		<path class="st0" d="M429.91,366.88c6.43,0,6.45-10,0-10C423.48,356.88,423.47,366.88,429.91,366.88L429.91,366.88z"/>
	</g>
</g>
<g>
	<g>
		<path class="st0" d="M431.61,370.28c6.43,0,6.45-10,0-10C425.18,360.28,425.17,370.28,431.61,370.28L431.61,370.28z"/>
	</g>
</g>
<g>
	<g>
		<path class="st0" d="M428.21,375.39c6.43,0,6.45-10,0-10C421.78,365.39,421.77,375.39,428.21,375.39L428.21,375.39z"/>
	</g>
</g>
<g>
	<g>
		<path class="st0" d="M429.91,375.39c6.43,0,6.45-10,0-10C423.48,365.39,423.47,375.39,429.91,375.39L429.91,375.39z"/>
	</g>
</g>
<g>
	<g>
		<path class="st0" d="M428.21,373.69c6.43,0,6.45-10,0-10C421.78,363.69,421.77,373.69,428.21,373.69L428.21,373.69z"/>
	</g>
</g>
<g>
	<g>
		<path class="st0" d="M423.08,372.09c0.4,3.81,2.74,6.81,6.53,7.77c3.69,0.94,7.47-0.44,9.52-3.67c1.41-2.21,0.53-5.61-1.79-6.84
			c-2.47-1.31-5.34-0.57-6.84,1.79c0.51-0.59,0.63-0.75,0.38-0.47c-0.27,0.27-0.1,0.15,0.51-0.36c-0.82,0.5,1.15-0.42,0.24-0.09
			c-0.8,0.28,1-0.11,0.4-0.06c-1.08,0.08,0.7,0.16,0.24,0.06c-0.86-0.19,0.12-0.04,0.29,0.19c-0.12-0.06-0.24-0.12-0.36-0.19
			c-0.33-0.2-0.17-0.07,0.47,0.39c-0.37-0.31-0.56-0.93,0.11,0.22c0.09,0.24,0.19,0.48,0.28,0.72c-0.14-0.51-0.14-0.33,0.02,0.54
			c-0.27-2.59-2.1-5.13-5-5C425.61,367.21,422.78,369.31,423.08,372.09L423.08,372.09z"/>
	</g>
</g>
<g>
	<g>
		<path class="st0" d="M629.48,103.28c-59.47,30.22-118.94,60.44-178.41,90.65c-16.86,8.57-33.73,17.14-50.59,25.71
			c-5.74,2.92-0.68,11.55,5.05,8.63c59.47-30.22,118.94-60.44,178.41-90.65c16.86-8.57,33.73-17.14,50.59-25.71
			C640.26,109,635.21,100.36,629.48,103.28L629.48,103.28z"/>
	</g>
</g>
</svg>
