<?xml version="1.0" encoding="utf-8"?>
<!-- Generator: Adobe Illustrator 24.1.1, SVG Export Plug-In . SVG Version: 6.00 Build 0)  -->
<svg version="1.1" id="Capa_1" xmlns="http://www.w3.org/2000/svg" xmlns:xlink="http://www.w3.org/1999/xlink" x="0px" y="0px"
	 viewBox="0 0 800 200" style="enable-background:new 0 0 800 200;" xml:space="preserve">
<style type="text/css">
	.st0{fill:#F7931E;}
	.st1{fill:#FFFFFF;}
	.st2{fill:#FFFFFF;stroke:#FFFFFF;stroke-width:0.75;stroke-miterlimit:10;}
</style>
<g>
	<rect class="st0" width="800" height="200"/>
</g>
<g>
	<g>
		<path class="st0" d="M29.2,253.5c1.93,0,1.93-3,0-3C27.27,250.5,27.27,253.5,29.2,253.5L29.2,253.5z"/>
	</g>
</g>
<circle class="st1" cx="58" cy="153" r="7"/>
<circle class="st1" cx="82" cy="153" r="7"/>
<circle class="st1" cx="136" cy="123" r="7"/>
<g>
	<g>
		<path class="st1" d="M57.2,148.7c1.93,0,1.93-3,0-3C55.27,145.7,55.27,148.7,57.2,148.7L57.2,148.7z"/>
	</g>
</g>
<g>
	<g>
		<path class="st1" d="M64.3,151.2c0-7.73,0-15.47,0-23.2c0-1.93-3-1.93-3,0c0,7.73,0,15.47,0,23.2
			C61.3,153.13,64.3,153.13,64.3,151.2L64.3,151.2z"/>
	</g>
</g>
<g>
	<g>
		<path class="st1" d="M89.04,154.03c-0.66-8.44-1.32-16.88-1.98-25.32c-0.15-1.91-3.15-1.93-3,0c0.66,8.44,1.32,16.88,1.98,25.32
			C86.19,155.94,89.19,155.96,89.04,154.03L89.04,154.03z"/>
	</g>
</g>
<g>
	<g>
		<path class="st1" d="M64.15,127.77c1.49-1.57,3.58-2.13,5.68-2.33c2.52-0.24,5.09-0.17,7.61-0.13c1.35,0.02,2.7,0.06,4.05,0.12
			c0.69,0.03,2.48-0.2,3.06,0.34c0.32,0.3,0.2,1.32,0.21,1.71c0.03,0.7,0.06,1.4,0.09,2.1c0.06,1.48,0.12,2.95,0.18,4.43
			c0.08,1.92,3.08,1.93,3,0c-0.07-1.79-0.15-3.58-0.22-5.36c-0.06-1.49,0.14-3.3-0.77-4.57c-0.77-1.08-2.05-1.4-3.3-1.52
			c-1.64-0.16-3.3-0.17-4.94-0.21c-3.14-0.08-6.37-0.21-9.5,0.16c-2.71,0.32-5.34,1.12-7.26,3.16
			C60.7,127.06,62.82,129.18,64.15,127.77L64.15,127.77z"/>
	</g>
</g>
<g>
	<g>
		<path class="st1" d="M86.07,128.35c-0.28-1.28-0.57-2.57-0.85-3.85c-0.17-0.77-1.1-1.29-1.85-1.05c-0.82,0.26-1.22,1.02-1.05,1.85
			c0.52,2.58,1.05,5.15,1.57,7.73c0.96-0.27,1.93-0.53,2.89-0.8c-0.41-1.82-0.81-3.63-1.22-5.45c-0.17-0.77-1.1-1.29-1.85-1.05
			c-0.8,0.26-1.23,1.02-1.05,1.85c0.41,1.82,0.81,3.63,1.22,5.45c0.17,0.77,1.1,1.29,1.85,1.05c0.82-0.26,1.22-1.02,1.05-1.85
			c-0.52-2.58-1.05-5.15-1.57-7.73c-0.96,0.27-1.93,0.53-2.89,0.8c0.28,1.28,0.57,2.57,0.85,3.85c0.17,0.77,1.1,1.29,1.85,1.05
			C85.83,129.94,86.25,129.17,86.07,128.35L86.07,128.35z"/>
	</g>
</g>
<g>
	<g>
		<path class="st1" d="M84.23,131.72c0.55,5.68,1.11,11.35,1.66,17.03c0.08,0.81,0.63,1.5,1.5,1.5c0.75,0,1.58-0.69,1.5-1.5
			c-0.55-5.68-1.11-11.35-1.66-17.03c-0.08-0.81-0.63-1.5-1.5-1.5C84.98,130.22,84.16,130.91,84.23,131.72L84.23,131.72z"/>
	</g>
</g>
<g>
	<g>
		<path class="st1" d="M66.29,128.3c2.29-0.69,4.62-1.05,7.01-1.07c-0.25-0.93-0.5-1.86-0.76-2.8c-1.28,0.67-2.63,0.85-4.06,0.67
			c0.13,0.98,0.27,1.96,0.4,2.95c5.01-1.88,10.28-2.78,15.63-2.64c-0.35-0.85-0.71-1.71-1.06-2.56c-1.68,1.42-3.79,2.34-5.98,2.58
			c0.13,0.98,0.27,1.96,0.4,2.95c1.38-0.45,2.74-0.89,4.2-0.9c0-1,0-2,0-3c-5.98,0.47-11.97,0.94-17.95,1.4c0,1,0,2,0,3
			c6.54-0.54,13.19-1.11,19.7,0.05c0.13-0.98,0.27-1.96,0.4-2.95c-3.19-0.25-6.39-0.34-9.6-0.28c-1.67,0.04-3.34,0.12-5,0.24
			c-1.44,0.11-2.96,0.43-4.4,0.34c-0.23-0.01-0.5-0.02-0.71-0.12c-0.11-0.05-0.24-0.28-0.29-0.29c-0.14-0.02,0.19-0.34-0.06-0.02
			c-0.23,0.3,0.72,0,0.76-0.01c1.54-0.3,3.08-0.56,4.63-0.76c3.17-0.4,6.36-0.58,9.56-0.57c1.93,0.01,1.93-2.99,0-3
			c-3.95-0.01-7.88,0.29-11.78,0.88c-1.08,0.16-2.15,0.35-3.21,0.56c-0.82,0.16-1.6,0.26-2.2,0.91c-0.98,1.05-0.85,2.7-0.1,3.83
			c0.93,1.4,2.69,1.68,4.24,1.57c1.96-0.13,3.9-0.37,5.86-0.46c4.1-0.2,8.21-0.14,12.31,0.18c1.67,0.13,2.07-2.65,0.4-2.95
			c-6.8-1.21-13.66-0.73-20.5-0.16c-1.91,0.16-1.93,3.15,0,3c5.98-0.47,11.97-0.94,17.95-1.4c1.9-0.15,1.96-3.02,0-3
			c-1.73,0.01-3.37,0.47-5,1.01c-1.52,0.49-1.37,3.14,0.4,2.95c3.05-0.33,5.76-1.47,8.1-3.45c1.04-0.88,0.15-2.53-1.06-2.56
			c-5.6-0.15-11.19,0.77-16.43,2.74c-1.64,0.62-1.28,2.74,0.4,2.95c1.95,0.24,3.84-0.18,5.57-1.08c1.34-0.7,0.69-2.81-0.76-2.8
			c-2.65,0.02-5.28,0.41-7.81,1.18C63.65,125.97,64.43,128.86,66.29,128.3L66.29,128.3z"/>
	</g>
</g>
<g>
	<g>
		<path class="st1" d="M131.47,121.94c1.15-9.74,2.45-19.46,3.89-29.16c0.28-1.89-2.61-2.7-2.89-0.8c-1.48,9.97-2.82,19.95-4,29.96
			C128.24,123.85,131.25,123.84,131.47,121.94L131.47,121.94z"/>
	</g>
</g>
<g>
	<g>
		<path class="st1" d="M128.71,120.4c0.09,0.99,0.33,1.89,0.75,2.79c0.36,0.77,0.88,1.48,1.48,2.08c0.56,0.55,1.57,0.6,2.12,0
			c0.55-0.6,0.59-1.53,0-2.12c-0.19-0.19-0.37-0.39-0.53-0.6c0.08,0.1,0.16,0.2,0.23,0.3c-0.32-0.42-0.59-0.88-0.8-1.37
			c0.05,0.12,0.1,0.24,0.15,0.36c-0.21-0.49-0.35-1.01-0.42-1.53c0.02,0.13,0.04,0.27,0.05,0.4c-0.01-0.1-0.02-0.2-0.03-0.31
			c-0.04-0.41-0.14-0.76-0.44-1.06c-0.26-0.26-0.69-0.46-1.06-0.44c-0.39,0.02-0.79,0.14-1.06,0.44
			C128.89,119.61,128.68,120,128.71,120.4L128.71,120.4z"/>
	</g>
</g>
<circle class="st1" cx="177" cy="163" r="7"/>
<g>
	<g>
		<path class="st1" d="M183.35,160.11c0.84-4.37,1.33-8.8,1.43-13.24c0.04-1.93-2.96-1.93-3,0c-0.09,4.18-0.53,8.34-1.32,12.45
			c-0.15,0.79,0.22,1.62,1.05,1.85C182.24,161.36,183.2,160.91,183.35,160.11L183.35,160.11z"/>
	</g>
</g>
<g>
	<g>
		<path class="st1" d="M184.14,160.87c1.85-7.04,1.79-14.45-0.19-21.46c-0.53-1.88-3.24-1.08-2.89,0.8
			c0.68,3.67,1.12,7.37,1.34,11.1c1,0,2,0,3,0c-0.62-4.87-0.67-9.77-0.15-14.66c-1,0-2,0-3,0c0.33,3.75,0.66,7.5,1,11.24
			c0.98-0.13,1.96-0.27,2.95-0.4c-0.96-4.6-1.29-9.27-1.03-13.95c0.08-1.51-2.08-2.01-2.8-0.76c-0.8,1.39-0.79,2.85-0.51,4.39
			c0.25,1.42,0.81,2.85,0.29,4.27c0.96,0,1.93,0,2.89,0c-0.45-2.77-0.63-5.56-0.58-8.36c0.03-1.64-2.66-2.1-2.95-0.4
			c-0.44,2.59-0.37,5.14,0.27,7.69c0.91-0.39,1.83-0.77,2.74-1.16c-0.68-1.54-0.86-3.16-0.69-4.83c0.2-1.92-2.81-1.91-3,0
			c-0.23,2.22,0.19,4.31,1.1,6.34c0.71,1.6,3.14,0.44,2.74-1.16c-0.5-2-0.61-4.05-0.27-6.09c-0.98-0.13-1.96-0.27-2.95-0.4
			c-0.05,3.07,0.19,6.12,0.69,9.15c0.26,1.6,2.44,1.23,2.89,0c0.5-1.37,0.34-2.79,0.05-4.19c-0.24-1.19-0.78-2.61-0.13-3.75
			c-0.93-0.25-1.86-0.5-2.8-0.76c-0.27,4.95,0.13,9.9,1.14,14.75c0.34,1.63,3.1,1.3,2.95-0.4c-0.33-3.75-0.66-7.5-1-11.24
			c-0.17-1.94-2.8-1.92-3,0c-0.52,4.88-0.47,9.79,0.15,14.66c0.24,1.86,3.11,1.97,3,0c-0.23-3.99-0.72-7.96-1.44-11.9
			c-0.96,0.27-1.93,0.53-2.89,0.8c1.84,6.5,1.91,13.33,0.19,19.87C180.75,161.94,183.65,162.74,184.14,160.87L184.14,160.87z"/>
	</g>
</g>
<g>
	<g>
		<path class="st1" d="M185.29,163.11c0.01-1.9,0.02-3.8,0.04-5.69c-0.75,0.43-1.5,0.86-2.26,1.3c-0.08-0.42-0.17-0.83-0.25-1.25
			c0.84,0.49,1.67,0.97,2.51,1.46c1.33-8.42,1.19-16.94-0.44-25.32c-0.37-1.89-3.26-1.09-2.89,0.8c1.52,7.81,1.68,15.86,0.44,23.72
			c-0.24,1.53,1.3,2.41,2.51,1.46c1.2-0.95,0.81-2.71-0.36-3.46c-0.98-0.62-2.25,0.19-2.26,1.3c-0.01,1.9-0.02,3.8-0.04,5.69
			C182.28,165.04,185.28,165.04,185.29,163.11L185.29,163.11z"/>
	</g>
</g>
<g>
	<g>
		<path class="st1" d="M184.18,152.52c1.93,0,1.93-3,0-3C182.25,149.52,182.25,152.52,184.18,152.52L184.18,152.52z"/>
	</g>
</g>
<rect x="-17" y="13" class="st1" width="834" height="6"/>
<circle class="st2" cx="21" cy="100" r="5"/>
<circle class="st1" cx="251" cy="154" r="7"/>
<circle class="st1" cx="275" cy="154" r="7"/>
<circle class="st1" cx="335" cy="176" r="7"/>
<circle class="st1" cx="311.5" cy="137.5" r="5.5"/>
<circle class="st1" cx="230" cy="107" r="7"/>
<circle class="st1" cx="395" cy="159" r="7"/>
<circle class="st1" cx="419" cy="159" r="7"/>
<circle class="st1" cx="479" cy="181" r="7"/>
<circle class="st1" cx="459" cy="145" r="7"/>
<circle class="st1" cx="374" cy="112" r="7"/>
<g>
	<g>
		<path class="st1" d="M231.66,108.39c2.5-1.45,4.09-4.04,4.61-6.85c0.67-3.57-0.24-7.12-1.25-10.54c-0.96,0.27-1.93,0.53-2.89,0.8
			c1.73,4.96,1.62,10.43-0.51,15.25c-0.77,1.74,1.78,3.28,2.59,1.51c3.51-7.67,3.92-16.51,0.9-24.41c-0.67-1.77-3.43-1.1-2.89,0.8
			c1.71,6.02,1.73,12.32,0.06,18.35c0.96,0.27,1.93,0.53,2.89,0.8c1.18-6.59,2.34-13.61-0.25-20.02c-0.48-1.19-2.63-1.64-2.89,0
			c-0.45,2.78-0.32,5.53,0.47,8.24c0.47,1.59,3,1.33,2.95-0.4c-0.07-2.47-0.14-4.95-0.21-7.42c-0.03-0.98-0.35-2.51,0.22-3.39
			c0.48-0.73,1.55-1.1,2.35-1.31c2.04-0.53,3.86,0.04,5.59,1.12c1.66,1.03,3.53,1.7,5.15,0.26c1.45-1.28-0.68-3.4-2.12-2.12
			c-0.29,0.26-2.24-1.19-2.5-1.33c-0.93-0.5-1.94-0.84-2.98-1c-2.17-0.33-4.55,0.02-6.41,1.25c-2.04,1.34-2.4,3.22-2.33,5.53
			c0.08,2.8,0.16,5.61,0.24,8.41c0.98-0.13,1.96-0.27,2.95-0.4c-0.64-2.17-0.83-4.4-0.47-6.64c-0.96,0-1.93,0-2.89,0
			c2.39,5.92,1.34,12.33,0.25,18.43c-0.34,1.87,2.37,2.69,2.89,0.8c1.81-6.53,1.79-13.43-0.06-19.94c-0.96,0.27-1.93,0.53-2.89,0.8
			c2.72,7.12,2.58,15.15-0.6,22.1c0.86,0.5,1.73,1.01,2.59,1.51c2.45-5.56,2.82-11.8,0.81-17.56c-0.63-1.8-3.45-1.07-2.89,0.8
			c1.3,4.41,2.96,11.12-1.99,13.99C228.48,106.77,229.99,109.36,231.66,108.39L231.66,108.39z"/>
	</g>
</g>
<g>
	<g>
		<path class="st1" d="M237.48,92.22c0.25-0.16,0.52-0.31,0.79-0.44c0.21-0.11-0.04-0.01-0.05,0.02c0.01-0.03,0.18-0.07,0.21-0.08
			c0.14-0.05,0.28-0.1,0.43-0.14c0.14-0.04,0.29-0.08,0.44-0.11c0.06-0.01,0.42-0.04,0.44-0.08c-0.02,0.04-0.31,0.03-0.06,0.01
			c0.07-0.01,0.15-0.01,0.22-0.02c0.17-0.01,0.34-0.02,0.51-0.02c0.15,0,0.3,0,0.45,0.01c0.08,0,0.15,0.01,0.22,0.02
			c0.04,0,0.29,0.04,0.08,0.01c-0.21-0.04,0.04,0.01,0.08,0.02c0.07,0.01,0.15,0.03,0.22,0.04c0.15,0.03,0.29,0.07,0.44,0.11
			c0.14,0.04,0.29,0.09,0.43,0.14c0.07,0.03,0.14,0.05,0.21,0.08c0.2,0.07-0.23-0.12-0.05-0.02c0.28,0.15,0.57,0.29,0.84,0.46
			c0.66,0.43,1.69,0.16,2.05-0.54c0.39-0.75,0.17-1.6-0.54-2.05c-2.63-1.7-6.25-1.7-8.88,0c-0.66,0.43-0.99,1.35-0.54,2.05
			C235.85,92.34,236.77,92.68,237.48,92.22L237.48,92.22z"/>
	</g>
</g>
<g>
	<g>
		<path class="st1" d="M15.57,102.48c1.13,3.42,3.81,6.67,7.5,7.4c3.35,0.66,7.24-0.76,8.73-3.99c0.34-0.74,0.21-1.62-0.54-2.05
			c-0.65-0.38-1.71-0.2-2.05,0.54c-0.96,2.08-3.4,3.06-5.52,2.58c-2.57-0.59-4.43-2.85-5.23-5.27c-0.25-0.77-1.04-1.27-1.85-1.05
			C15.86,100.84,15.31,101.71,15.57,102.48L15.57,102.48z"/>
	</g>
</g>
<g>
	<g>
		<path class="st1" d="M31.46,106.28c3.58-5.1,3.09-11.86,0.83-17.39c-2.52-6.19-7.16-11.12-10.68-16.72
			c-3.18-5.05-5.84-11.86-3.23-17.72c0.46-1.04,1.33-2.66,2.59-2.89c1.34-0.25,1.94,2.14,2.27,3.06c0.53,1.47,0.88,2.94,0.49,4.49
			c-0.37,1.47-1.18,2.78-2.07,3.99c-1.86,2.56-4.04,4.84-5.72,7.54c-1.76,2.83-3.27,5.99-4.13,9.21c-0.79,2.96-0.51,5.91,1.4,8.37
			c1.63,2.09,4.05,3.48,6.57,4.2c5.27,1.52,12.46,0.31,15.13-5.02c1.25-2.5,1.31-5.5-0.31-7.85c-1.54-2.24-4.13-3.56-6.72-4.19
			c-3.22-0.79-7.11-0.85-9.72,1.5c-2.13,1.91-3.14,5.53-1.12,7.89c1.61,1.89,4.91,2.31,6.78,0.55c1.08-1.02,1.42-2.65,0.01-3.57
			c-1.17-0.77-2.84-0.37-3.49,0.87c-0.89,1.71,1.69,3.23,2.59,1.51c-0.3,0.02-0.6,0.04-0.89,0.06c0-0.5,0-1.01,0-1.51
			c-0.68,1.44-2.89,0.7-3.09-0.73c-0.35-2.54,2.47-3.93,4.56-4.05c4.01-0.23,10.83,2.16,9.06,7.38c-1.68,4.95-8.41,5.54-12.66,4.08
			c-1.93-0.66-3.83-1.88-4.85-3.68c-1.38-2.43-0.42-5.18,0.5-7.59c1.05-2.73,2.47-5.33,4.16-7.72c1.55-2.19,3.45-4.12,4.95-6.36
			c1.36-2.02,2.38-4.42,2.18-6.91c-0.12-1.43-0.55-2.77-1.08-4.09c-0.44-1.13-0.88-2.3-1.73-3.2c-1.85-1.94-4.59-1.33-6.36,0.36
			c-1.85,1.75-2.79,4.46-3.15,6.93c-0.77,5.25,0.94,10.6,3.55,15.13c3.21,5.58,7.75,10.31,10.63,16.09
			c2.54,5.08,3.57,11.6,0.13,16.5C27.76,106.35,30.36,107.85,31.46,106.28L31.46,106.28z"/>
	</g>
</g>
<g>
	<g>
		<path class="st1" d="M318.89,141.67c3.58-5.1,3.09-11.86,0.83-17.39c-2.52-6.19-7.16-11.12-10.68-16.72
			c-3.18-5.05-5.84-11.86-3.23-17.72c0.46-1.04,1.33-2.66,2.59-2.89c1.34-0.25,1.93,2.14,2.27,3.06c0.53,1.47,0.88,2.94,0.49,4.49
			c-0.37,1.47-1.18,2.78-2.07,3.99c-1.86,2.56-4.04,4.84-5.72,7.54c-1.76,2.83-3.27,5.99-4.13,9.21c-0.79,2.96-0.51,5.91,1.4,8.37
			c1.63,2.09,4.05,3.48,6.57,4.2c5.27,1.52,12.46,0.31,15.13-5.02c1.25-2.5,1.31-5.5-0.31-7.85c-1.54-2.24-4.13-3.56-6.72-4.19
			c-3.22-0.79-7.11-0.85-9.72,1.5c-2.13,1.91-3.14,5.53-1.12,7.89c1.61,1.89,4.91,2.31,6.78,0.55c1.08-1.02,1.42-2.65,0.01-3.57
			c-1.17-0.77-2.84-0.37-3.49,0.87c-0.89,1.71,1.69,3.23,2.59,1.51c-0.3,0.02-0.6,0.04-0.89,0.06c0-0.5,0-1.01,0-1.51
			c-0.68,1.44-2.89,0.7-3.09-0.73c-0.35-2.54,2.47-3.93,4.56-4.05c4.01-0.23,10.83,2.16,9.06,7.38c-1.68,4.95-8.41,5.54-12.66,4.08
			c-1.93-0.66-3.83-1.88-4.85-3.68c-1.38-2.43-0.42-5.18,0.5-7.59c1.05-2.73,2.47-5.33,4.16-7.72c1.55-2.19,3.45-4.12,4.95-6.36
			c1.36-2.02,2.38-4.42,2.18-6.91c-0.12-1.43-0.55-2.77-1.08-4.09c-0.44-1.13-0.88-2.3-1.73-3.2c-1.85-1.94-4.59-1.33-6.36,0.36
			c-1.85,1.75-2.79,4.46-3.15,6.93c-0.77,5.25,0.94,10.6,3.55,15.13c3.21,5.58,7.75,10.31,10.63,16.09
			c2.54,5.08,3.57,11.6,0.13,16.5C315.19,141.74,317.79,143.24,318.89,141.67L318.89,141.67z"/>
	</g>
</g>
<g>
	<g>
		<path class="st1" d="M313.25,142.87c2.43,0.31,5.06-0.39,7-1.88c0.32-0.25,0.58-0.49,0.69-0.9c0.1-0.36,0.05-0.84-0.15-1.16
			c-0.4-0.61-1.39-1.05-2.05-0.54c-0.43,0.33-0.89,0.62-1.38,0.86c-0.1,0.05-0.26,0.16-0.37,0.17c0.2-0.08,0.23-0.1,0.08-0.03
			c-0.06,0.02-0.13,0.05-0.19,0.07c-0.24,0.09-0.48,0.16-0.73,0.23s-0.5,0.12-0.75,0.17c-0.07,0.01-0.13,0.02-0.2,0.03
			c0.23-0.03,0.26-0.03,0.1-0.01c-0.14,0.01-0.27,0.03-0.41,0.04c-0.54,0.04-1.09,0.01-1.63-0.06c-0.35-0.05-0.82,0.2-1.06,0.44
			c-0.26,0.26-0.46,0.69-0.44,1.06c0.02,0.39,0.14,0.79,0.44,1.06C312.51,142.72,312.83,142.81,313.25,142.87L313.25,142.87z"/>
	</g>
</g>
<g>
	<g>
		<path class="st1" d="M318.61,135.88c-0.38,0.94-0.76,1.89-1.13,2.83c-0.14,0.34-0.02,0.86,0.15,1.16c0.18,0.31,0.54,0.61,0.9,0.69
			c0.38,0.09,0.82,0.07,1.16-0.15c0.1-0.08,0.2-0.16,0.3-0.23c0.19-0.19,0.31-0.41,0.39-0.66c0.38-0.94,0.76-1.89,1.13-2.83
			c0.14-0.34,0.02-0.86-0.15-1.16c-0.18-0.31-0.54-0.61-0.9-0.69c-0.38-0.09-0.82-0.07-1.16,0.15c-0.1,0.08-0.2,0.16-0.3,0.23
			C318.81,135.4,318.68,135.62,318.61,135.88L318.61,135.88z"/>
	</g>
</g>
<g>
	<g>
		<path class="st1" d="M257.86,153.31c0.55-9.07-0.26-18.17-2.36-27.01c-0.45-1.88-3.34-1.08-2.89,0.8
			c2.04,8.59,2.78,17.4,2.25,26.21C254.74,155.23,257.74,155.23,257.86,153.31L257.86,153.31z"/>
	</g>
</g>
<g>
	<g>
		<path class="st1" d="M282.54,152.77c0.4-9.23-2.02-18.23-4.46-27.05c-0.51-1.86-3.41-1.07-2.89,0.8
			c2.37,8.58,4.73,17.27,4.35,26.25C279.46,154.7,282.46,154.69,282.54,152.77L282.54,152.77z"/>
	</g>
</g>
<g>
	<g>
		<path class="st1" d="M257.59,127.27c6.2-1.21,12.5-1.73,18.82-1.6c1.93,0.04,1.93-2.96,0-3c-6.58-0.13-13.16,0.45-19.62,1.71
			C254.9,124.74,255.7,127.64,257.59,127.27L257.59,127.27z"/>
	</g>
</g>
<g>
	<g>
		<path class="st1" d="M256.94,128.01c1.7-0.38,3.4-0.75,5.1-1.13c0.77-0.17,1.29-1.1,1.05-1.85c-0.26-0.81-1.02-1.23-1.85-1.05
			c-1.7,0.38-3.4,0.75-5.1,1.13c-0.77,0.17-1.29,1.1-1.05,1.85C255.36,127.77,256.12,128.19,256.94,128.01L256.94,128.01z"/>
	</g>
</g>
<g>
	<g>
		<path class="st1" d="M255.77,126.07c0.27-2.41,0.06-4.87-0.57-7.21c-0.21-0.76-1.08-1.3-1.85-1.05c-0.78,0.25-1.27,1.03-1.05,1.85
			c0.15,0.54,0.27,1.09,0.37,1.64c0.02,0.13,0.04,0.26,0.06,0.38c0.01,0.09,0.03,0.17,0.04,0.26c-0.02-0.16-0.03-0.19-0.01-0.08
			c0.03,0.28,0.06,0.56,0.08,0.84c0.08,1.12,0.05,2.25-0.07,3.36c-0.09,0.78,0.75,1.53,1.5,1.5
			C255.16,127.53,255.67,126.91,255.77,126.07L255.77,126.07z"/>
	</g>
</g>
<g>
	<g>
		<path class="st1" d="M255.96,121.63c4.34-0.36,8.69-0.77,13.03-1.08c1.67-0.12,3.68-0.28,5.16,0.66c1.04,0.67,1.83,2.09,1.09,3.23
			c-1.05,1.63,1.55,3.13,2.59,1.51c1.11-1.73,0.83-3.95-0.33-5.58c-1.36-1.91-3.48-2.69-5.75-2.87c-2.45-0.19-4.99,0.22-7.43,0.43
			c-2.79,0.23-5.58,0.46-8.37,0.7C254.05,118.78,254.03,121.79,255.96,121.63L255.96,121.63z"/>
	</g>
</g>
<g>
	<g>
		<path class="st1" d="M259.79,124.12c0.93-0.27,1.86-0.54,2.8-0.81c0.65-0.19,1.08-0.78,1.1-1.45c0.04-1.48-1.64-2.16-2.79-1.39
			c-1.4,0.93-0.84,2.87,0.62,3.37c0.7,0.24,1.47,0.12,2.19,0.07c1.15-0.08,2.3-0.17,3.45-0.25c2.14-0.15,4.27-0.31,6.41-0.46
			c1.44-0.1,2.09-1.99,0.76-2.8c-2.85-1.72-6.27-0.68-9.3-0.08c-3.69,0.73-7.38,1.5-11.06,2.3c0.27,0.96,0.53,1.93,0.8,2.89
			c1.72-0.45,2.93-1.66,3.47-3.34c0.38-1.2-0.79-2.01-1.85-1.85c0.45,0.27,0.61,0.31,0.47,0.12c-0.04-0.05-0.06-0.1-0.07-0.16
			c-0.02,0.01,0.07-0.27,0.08-0.3c0.27-0.42,1.28-0.41,1.7-0.43c1.73-0.07,3.48,0.01,5.21,0.03c1.74,0.01,3.49,0.03,5.23,0.04
			c0.91,0.01,1.83,0.01,2.74,0.02c0.49,0,1.77-0.22,2.2,0.06c0.41,0.27,0.51,1.33,0.63,1.79c0.2,0.78,0.4,1.56,0.6,2.35
			c0.42,1.72,0.82,3.46,1.19,5.19c0.74,3.47,1.35,6.97,1.86,10.49c0.27,1.9,3.17,1.09,2.89-0.8c-0.72-4.95-1.65-9.87-2.81-14.74
			c-0.3-1.26-0.62-2.51-0.95-3.76c-0.21-0.79-0.42-1.6-0.93-2.27c-1.35-1.77-3.96-1.31-5.92-1.32c-2.57-0.02-5.15-0.04-7.72-0.06
			c-2.04-0.02-4.41-0.34-6.38,0.31c-1.62,0.54-2.78,1.91-2.59,3.66c0.2,1.8,1.57,2.95,3.36,2.67c-0.62-0.62-1.23-1.23-1.85-1.85
			c-0.22,0.69-0.69,1.06-1.37,1.24c-1.88,0.49-1.08,3.3,0.8,2.89c3.2-0.7,6.4-1.37,9.61-2.01c1.48-0.3,2.96-0.61,4.44-0.87
			c1.35-0.24,2.77-0.38,3.99,0.36c0.25-0.93,0.5-1.86,0.76-2.8c-1.97,0.14-3.95,0.29-5.92,0.43c-0.99,0.07-1.97,0.14-2.96,0.21
			c-0.41,0.03-0.82,0.06-1.23,0.09c-0.25,0.02-0.49,0.04-0.74,0.05c-0.9-0.06-1.11,0.66-0.62,2.17c-0.35-0.15-0.71-0.29-1.06-0.44
			c0.03,0.02,0.06,0.05,0.09,0.07c-0.15-0.35-0.29-0.71-0.44-1.06c0,0.05,0,0.09,0,0.14c0.37-0.48,0.73-0.96,1.1-1.45
			c-0.93,0.27-1.86,0.54-2.8,0.81C257.14,121.76,257.93,124.65,259.79,124.12L259.79,124.12z"/>
	</g>
</g>
<g>
	<g>
		<path class="st1" d="M367.09,109.84c-1.76,10.64-0.74,21.6,3.11,31.69c0.68,1.78,3.31,1.12,2.89-0.8
			c-2.37-10.92-3.88-22-4.52-33.16c-0.11-1.91-3.02-1.95-3,0c0.03,2.28,0.06,4.56,0.08,6.84c0.93-0.25,1.86-0.5,2.8-0.76
			c-1.27-2.38-0.43-6,2.19-7.11c2.71-1.15,5.95,1.37,5.67,4.21c-0.18,1.92,2.82,1.91,3,0c0.46-4.83-5.05-8.74-9.51-7.1
			c-4.52,1.67-6.11,7.44-3.94,11.51c0.71,1.32,2.81,0.7,2.8-0.76c-0.03-2.28-0.06-4.56-0.08-6.84c-1,0-2,0-3,0
			c0.66,11.42,2.2,22.78,4.63,33.95c0.96-0.27,1.93-0.53,2.89-0.8c-3.65-9.56-4.78-19.98-3.11-30.09
			C370.29,108.75,367.4,107.94,367.09,109.84L367.09,109.84z"/>
	</g>
</g>
<g>
	<g>
		<path class="st1" d="M366.62,116.23c1.09,2.01,1.04,4.3,0.92,6.52c-0.13,2.42-0.29,4.84-0.29,7.27
			c-0.01,5.08,0.44,10.15,1.27,15.16c0.31,1.9,3.2,1.09,2.89-0.8c-0.86-5.23-1.24-10.53-1.14-15.82c0.08-4.57,1.22-9.62-1.06-13.84
			C368.29,113.02,365.7,114.53,366.62,116.23L366.62,116.23z"/>
	</g>
</g>
<g>
	<g>
		<path class="st1" d="M372.62,145.21c0.18-0.57,0.37-1.14,0.55-1.71c0.06-0.2,0.07-0.4,0.03-0.6c-0.01-0.2-0.07-0.39-0.18-0.56
			c-0.09-0.17-0.22-0.32-0.39-0.42c-0.14-0.13-0.31-0.22-0.51-0.27c-0.13-0.02-0.27-0.04-0.4-0.05c-0.27,0-0.52,0.07-0.76,0.2
			c-0.1,0.08-0.2,0.16-0.3,0.23c-0.19,0.19-0.31,0.41-0.39,0.66c-0.18,0.57-0.37,1.14-0.55,1.71c-0.06,0.2-0.07,0.4-0.03,0.6
			c0.01,0.2,0.07,0.39,0.18,0.56c0.09,0.17,0.22,0.32,0.39,0.42c0.14,0.13,0.31,0.22,0.51,0.27c0.13,0.02,0.27,0.04,0.4,0.05
			c0.27,0,0.52-0.07,0.76-0.2c0.1-0.08,0.2-0.16,0.3-0.23C372.42,145.68,372.55,145.46,372.62,145.21L372.62,145.21z"/>
	</g>
</g>
<g>
	<g>
		<path class="st1" d="M342.3,177.04c3-10.77,0.42-21.92-2.19-32.49c-0.91,0.39-1.83,0.77-2.74,1.16
			c2.44,5.54,2.85,11.82,3.22,17.79c0.29,4.71,0.32,10.26-3.41,13.73c-1.42,1.32,0.71,3.44,2.12,2.12
			c4.24-3.94,4.61-10.05,4.31-15.48c-0.37-6.66-0.93-13.51-3.65-19.67c-0.7-1.6-3.14-0.44-2.74,1.16
			c2.48,10.04,5.04,20.66,2.19,30.9C338.89,178.1,341.79,178.9,342.3,177.04L342.3,177.04z"/>
	</g>
</g>
<g>
	<g>
		<path class="st1" d="M400.58,159.54c0.73-8.5,0.01-17.07-2.09-25.33c-0.47-1.87-3.37-1.08-2.89,0.8
			c2.03,8.02,2.69,16.29,1.98,24.54C397.42,161.46,400.42,161.45,400.58,159.54L400.58,159.54z"/>
	</g>
</g>
<g>
	<g>
		<path class="st1" d="M402.64,157.25c0.09-4.02-0.23-8.03-0.94-11.98c-0.36-1.98-0.82-3.95-1.39-5.89c-0.3-1.04-0.64-2.08-1-3.1
			c-0.18-0.5-1.12-2.17-0.91-2.58c0.23-0.43,1.86-0.66,2.34-0.79c0.96-0.25,1.94-0.46,2.91-0.64c1.98-0.36,3.98-0.56,5.99-0.62
			c4.09-0.12,8.14,0.39,12.09,1.47c1.86,0.51,2.66-2.38,0.8-2.89c-4.41-1.21-9-1.76-13.57-1.56c-2.27,0.1-4.54,0.38-6.77,0.83
			c-1.81,0.36-4.22,0.65-5.7,1.84c-1.82,1.46-0.87,3.51-0.22,5.3c0.8,2.19,1.46,4.42,1.99,6.69c1.06,4.57,1.5,9.23,1.4,13.92
			C399.6,159.18,402.6,159.18,402.64,157.25L402.64,157.25z"/>
	</g>
</g>
<g>
	<g>
		<path class="st1" d="M425.53,159.54c0.91-9.7-0.04-19.52-2.75-28.87c-0.54-1.85-3.43-1.06-2.89,0.8
			c2.65,9.12,3.53,18.62,2.64,28.08C422.35,161.46,425.35,161.45,425.53,159.54L425.53,159.54z"/>
	</g>
</g>
<g>
	<g>
		<path class="st1" d="M464.73,147.4c1.73-8.46,0.49-17-0.88-25.41c-0.57-3.53-1.68-7.85,1.25-10.66c2.65-2.54,6.56-1.96,8.89,0.65
			c1.27,1.41,2.72,2.65,4.74,2.07c0.92-0.26,1.69-0.85,2.68-0.88c0.94-0.02,1.83,0.32,2.52,0.95c1.43,1.3,3.55-0.82,2.12-2.12
			c-1.37-1.25-3.13-1.95-5-1.81c-0.91,0.07-1.69,0.36-2.52,0.71c-0.53,0.23-0.8,0.43-1.31,0.1c-0.39-0.25-0.69-0.68-0.99-1.02
			c-2.61-2.89-6.62-4.2-10.33-2.68c-3.8,1.55-5.79,5.25-5.74,9.25c0.03,2.25,0.52,4.49,0.87,6.7c0.39,2.39,0.77,4.79,1.05,7.19
			c0.63,5.37,0.84,10.83-0.25,16.15C461.45,148.49,464.34,149.29,464.73,147.4L464.73,147.4z"/>
	</g>
</g>
<g>
	<g>
		<path class="st1" d="M468.84,122.63c0.09-0.28,0.19-0.36,0.46-0.45c0.4-0.14,0.84-0.16,1.27-0.12c1.42,0.16,2.51,1.07,3.71,1.79
			c1.51,0.9,3.19,1.59,4.97,1.24c0.69-0.13,1.33-0.44,1.99-0.67c0.24-0.08,0.63-0.17,0.78-0.24c0.16-0.08,0.14,0.07,0.11-0.03
			c-0.01-0.02-0.41-0.52-0.18-0.08c0.88,1.72,3.47,0.2,2.59-1.51c-1.02-1.99-3.26-1.34-4.92-0.72c-0.82,0.31-1.45,0.45-2.3,0.17
			c-0.96-0.31-1.81-0.93-2.66-1.46c-1.45-0.91-3.06-1.6-4.81-1.49c-1.8,0.11-3.33,1-3.9,2.77
			C465.36,123.68,468.25,124.47,468.84,122.63L468.84,122.63z"/>
	</g>
</g>
<g>
	<g>
		<path class="st1" d="M465.75,124.95c0.1-0.08,0.19-0.16,0.29-0.24c0.05-0.04,0.1-0.08,0.15-0.12c0.15-0.12-0.02,0.02-0.08,0.06
			c0.21-0.13,0.41-0.3,0.62-0.45c0.43-0.3,0.88-0.57,1.34-0.82c0.22-0.12,0.45-0.24,0.68-0.35c0.11-0.06,0.23-0.11,0.34-0.16
			c0.06-0.03,0.12-0.05,0.17-0.08c0.04-0.02,0.25-0.11,0.04-0.02c-0.21,0.09,0,0,0.04-0.02c0.06-0.02,0.12-0.05,0.18-0.07
			c0.12-0.05,0.24-0.09,0.36-0.13c0.25-0.09,0.51-0.18,0.77-0.26c0.75-0.23,1.3-1.06,1.05-1.85c-0.24-0.75-1.04-1.3-1.85-1.05
			c-2.3,0.71-4.39,1.88-6.22,3.43c-0.6,0.51-0.56,1.6,0,2.12C464.27,125.54,465.11,125.49,465.75,124.95L465.75,124.95z"/>
	</g>
</g>
<g>
	<g>
		<path class="st1" d="M485.18,179.73c1.54-8.82,1.16-17.84-1.18-26.49c-0.96,0.27-1.93,0.53-2.89,0.8
			c3.32,8.52,3.57,17.91,0.69,26.6c-0.61,1.84,2.29,2.62,2.89,0.8c3.03-9.13,2.8-19.22-0.69-28.19c-0.68-1.76-3.41-1.11-2.89,0.8
			c2.2,8.11,2.62,16.61,1.18,24.89C481.96,180.82,484.85,181.64,485.18,179.73L485.18,179.73z"/>
	</g>
</g>
<circle class="st1" cx="529" cy="158" r="7"/>
<circle class="st1" cx="553" cy="158" r="7"/>
<circle class="st1" cx="613" cy="180" r="7"/>
<circle class="st1" cx="589.5" cy="141.5" r="5.5"/>
<circle class="st1" cx="673" cy="163" r="7"/>
<circle class="st1" cx="697" cy="163" r="7"/>
<circle class="st1" cx="757" cy="185" r="7"/>
<circle class="st1" cx="737" cy="149" r="7"/>
<circle class="st1" cx="652" cy="116" r="7"/>
<g>
	<g>
		<path class="st1" d="M596.89,145.67c3.58-5.1,3.09-11.86,0.83-17.39c-2.52-6.19-7.16-11.12-10.68-16.72
			c-3.18-5.05-5.84-11.86-3.23-17.72c0.46-1.04,1.33-2.66,2.59-2.89c1.34-0.25,1.93,2.14,2.27,3.06c0.53,1.47,0.88,2.94,0.49,4.49
			c-0.37,1.47-1.18,2.78-2.07,3.99c-1.86,2.56-4.03,4.84-5.72,7.54c-1.76,2.83-3.27,5.99-4.13,9.21c-0.79,2.96-0.51,5.91,1.4,8.37
			c1.63,2.09,4.05,3.48,6.57,4.2c5.27,1.52,12.46,0.31,15.13-5.02c1.25-2.5,1.31-5.5-0.31-7.85c-1.54-2.24-4.13-3.56-6.72-4.19
			c-3.22-0.79-7.11-0.85-9.72,1.5c-2.13,1.91-3.14,5.53-1.12,7.89c1.61,1.89,4.91,2.31,6.78,0.55c1.08-1.02,1.42-2.65,0.01-3.57
			c-1.17-0.77-2.84-0.37-3.49,0.87c-0.89,1.71,1.69,3.23,2.59,1.51c-0.3,0.02-0.6,0.04-0.89,0.06c0-0.5,0-1.01,0-1.51
			c-0.68,1.44-2.89,0.7-3.09-0.73c-0.35-2.54,2.47-3.93,4.56-4.05c4.01-0.23,10.83,2.16,9.06,7.38c-1.68,4.95-8.41,5.54-12.66,4.08
			c-1.93-0.66-3.83-1.88-4.85-3.68c-1.38-2.43-0.42-5.18,0.5-7.59c1.05-2.73,2.47-5.33,4.16-7.72c1.55-2.19,3.45-4.12,4.95-6.36
			c1.36-2.02,2.38-4.42,2.18-6.91c-0.12-1.43-0.55-2.77-1.08-4.09c-0.44-1.13-0.88-2.3-1.73-3.2c-1.85-1.94-4.59-1.33-6.36,0.36
			c-1.85,1.75-2.79,4.46-3.15,6.93c-0.77,5.25,0.94,10.6,3.55,15.13c3.21,5.58,7.75,10.31,10.63,16.09
			c2.54,5.08,3.57,11.6,0.13,16.5C593.19,145.74,595.79,147.24,596.89,145.67L596.89,145.67z"/>
	</g>
</g>
<g>
	<g>
		<path class="st1" d="M591.25,146.87c2.43,0.31,5.06-0.39,7-1.88c0.32-0.25,0.58-0.49,0.69-0.9c0.1-0.36,0.05-0.84-0.15-1.16
			c-0.4-0.61-1.39-1.05-2.05-0.54c-0.43,0.33-0.89,0.62-1.38,0.86c-0.1,0.05-0.26,0.16-0.37,0.17c0.2-0.08,0.23-0.1,0.08-0.03
			c-0.06,0.02-0.13,0.05-0.19,0.07c-0.24,0.09-0.48,0.16-0.73,0.23c-0.25,0.07-0.5,0.12-0.75,0.17c-0.07,0.01-0.13,0.02-0.2,0.03
			c0.23-0.03,0.26-0.03,0.1-0.01c-0.14,0.01-0.27,0.03-0.41,0.04c-0.54,0.04-1.09,0.01-1.63-0.06c-0.35-0.05-0.82,0.2-1.06,0.44
			c-0.26,0.26-0.46,0.69-0.44,1.06c0.02,0.39,0.14,0.79,0.44,1.06C590.51,146.72,590.83,146.81,591.25,146.87L591.25,146.87z"/>
	</g>
</g>
<g>
	<g>
		<path class="st1" d="M535.86,157.31c0.55-9.07-0.26-18.17-2.36-27.01c-0.45-1.88-3.34-1.08-2.89,0.8
			c2.04,8.59,2.78,17.4,2.25,26.21C532.74,159.23,535.74,159.23,535.86,157.31L535.86,157.31z"/>
	</g>
</g>
<g>
	<g>
		<path class="st1" d="M560.54,156.77c0.4-9.23-2.02-18.23-4.46-27.05c-0.51-1.86-3.41-1.07-2.89,0.8
			c2.37,8.58,4.73,17.27,4.35,26.25C557.46,158.7,560.46,158.69,560.54,156.77L560.54,156.77z"/>
	</g>
</g>
<g>
	<g>
		<path class="st1" d="M535.59,131.27c6.2-1.21,12.5-1.73,18.82-1.6c1.93,0.04,1.93-2.96,0-3c-6.58-0.13-13.16,0.45-19.62,1.71
			C532.9,128.74,533.7,131.64,535.59,131.27L535.59,131.27z"/>
	</g>
</g>
<g>
	<g>
		<path class="st1" d="M534.94,132.01c1.7-0.38,3.4-0.75,5.1-1.13c0.77-0.17,1.29-1.1,1.05-1.85c-0.26-0.81-1.02-1.23-1.85-1.05
			c-1.7,0.38-3.4,0.75-5.1,1.13c-0.77,0.17-1.29,1.1-1.05,1.85C533.36,131.77,534.12,132.19,534.94,132.01L534.94,132.01z"/>
	</g>
</g>
<g>
	<g>
		<path class="st1" d="M645.09,113.84c-1.76,10.64-0.74,21.6,3.11,31.69c0.68,1.78,3.31,1.12,2.89-0.8
			c-2.37-10.92-3.88-22-4.52-33.16c-0.11-1.91-3.02-1.95-3,0c0.03,2.28,0.06,4.56,0.08,6.84c0.93-0.25,1.86-0.5,2.8-0.76
			c-1.27-2.38-0.43-6,2.19-7.11c2.71-1.15,5.95,1.37,5.67,4.21c-0.18,1.92,2.82,1.91,3,0c0.46-4.83-5.05-8.74-9.51-7.1
			c-4.52,1.67-6.11,7.44-3.94,11.51c0.71,1.32,2.81,0.7,2.8-0.76c-0.03-2.28-0.06-4.56-0.08-6.84c-1,0-2,0-3,0
			c0.66,11.42,2.2,22.78,4.63,33.95c0.96-0.27,1.93-0.53,2.89-0.8c-3.65-9.56-4.78-19.98-3.11-30.09
			C648.29,112.75,645.4,111.94,645.09,113.84L645.09,113.84z"/>
	</g>
</g>
<g>
	<g>
		<path class="st1" d="M644.62,120.23c1.09,2.01,1.04,4.3,0.92,6.52c-0.13,2.42-0.29,4.84-0.29,7.27
			c-0.01,5.08,0.44,10.15,1.27,15.16c0.31,1.9,3.2,1.09,2.89-0.8c-0.86-5.23-1.24-10.53-1.14-15.82c0.08-4.57,1.22-9.62-1.06-13.84
			C646.29,117.02,643.7,118.53,644.62,120.23L644.62,120.23z"/>
	</g>
</g>
<g>
	<g>
		<path class="st1" d="M620.3,181.04c3-10.77,0.42-21.92-2.19-32.49c-0.91,0.39-1.83,0.77-2.74,1.16
			c2.44,5.54,2.85,11.82,3.22,17.79c0.29,4.71,0.32,10.26-3.41,13.73c-1.42,1.32,0.71,3.44,2.12,2.12
			c4.24-3.94,4.61-10.05,4.31-15.48c-0.37-6.66-0.93-13.51-3.65-19.67c-0.7-1.6-3.14-0.44-2.74,1.16
			c2.48,10.04,5.04,20.66,2.19,30.9C616.89,182.1,619.79,182.9,620.3,181.04L620.3,181.04z"/>
	</g>
</g>
<g>
	<g>
		<path class="st1" d="M680.64,161.25c0.09-4.02-0.23-8.03-0.94-11.98c-0.36-1.98-0.82-3.95-1.39-5.89c-0.3-1.04-0.64-2.08-1-3.1
			c-0.18-0.5-1.12-2.17-0.91-2.58c0.23-0.43,1.86-0.66,2.34-0.79c0.96-0.25,1.93-0.46,2.91-0.64c1.98-0.36,3.98-0.56,5.99-0.62
			c4.09-0.12,8.14,0.39,12.09,1.47c1.86,0.51,2.66-2.38,0.8-2.89c-4.41-1.21-9-1.76-13.57-1.56c-2.27,0.1-4.54,0.38-6.77,0.83
			c-1.81,0.36-4.22,0.65-5.7,1.84c-1.82,1.46-0.87,3.51-0.22,5.3c0.8,2.19,1.46,4.42,1.99,6.69c1.06,4.57,1.5,9.23,1.4,13.92
			C677.6,163.18,680.6,163.18,680.64,161.25L680.64,161.25z"/>
	</g>
</g>
<g>
	<g>
		<path class="st1" d="M703.53,163.54c0.91-9.7-0.04-19.52-2.75-28.87c-0.54-1.85-3.43-1.06-2.89,0.8
			c2.65,9.12,3.53,18.62,2.64,28.08C700.35,165.46,703.35,165.45,703.53,163.54L703.53,163.54z"/>
	</g>
</g>
<g>
	<g>
		<path class="st1" d="M742.73,151.4c1.73-8.46,0.49-17-0.88-25.41c-0.57-3.53-1.68-7.85,1.25-10.66c2.65-2.54,6.56-1.96,8.89,0.65
			c1.27,1.41,2.72,2.65,4.74,2.07c0.92-0.26,1.69-0.85,2.68-0.88c0.94-0.02,1.83,0.32,2.52,0.95c1.43,1.3,3.55-0.82,2.12-2.12
			c-1.37-1.25-3.13-1.95-5-1.81c-0.91,0.07-1.69,0.36-2.52,0.71c-0.53,0.23-0.8,0.43-1.31,0.1c-0.39-0.25-0.69-0.68-0.99-1.02
			c-2.61-2.89-6.62-4.2-10.33-2.68c-3.8,1.55-5.79,5.25-5.74,9.25c0.03,2.25,0.52,4.49,0.87,6.7c0.39,2.39,0.77,4.79,1.05,7.19
			c0.63,5.37,0.84,10.83-0.25,16.15C739.45,152.49,742.34,153.29,742.73,151.4L742.73,151.4z"/>
	</g>
</g>
<g>
	<g>
		<path class="st1" d="M746.84,126.63c0.09-0.28,0.19-0.36,0.46-0.45c0.4-0.14,0.84-0.16,1.27-0.12c1.42,0.16,2.51,1.07,3.71,1.79
			c1.51,0.9,3.19,1.59,4.97,1.24c0.69-0.13,1.33-0.44,1.99-0.67c0.24-0.08,0.63-0.17,0.78-0.24c0.16-0.08,0.14,0.07,0.11-0.03
			c-0.01-0.02-0.41-0.52-0.18-0.08c0.88,1.72,3.47,0.2,2.59-1.51c-1.02-1.99-3.26-1.34-4.92-0.72c-0.82,0.31-1.45,0.45-2.3,0.17
			c-0.96-0.31-1.81-0.93-2.66-1.46c-1.45-0.91-3.06-1.6-4.81-1.49c-1.8,0.11-3.33,1-3.9,2.77
			C743.36,127.68,746.25,128.47,746.84,126.63L746.84,126.63z"/>
	</g>
</g>
<g>
	<g>
		<path class="st1" d="M743.75,128.95c0.1-0.08,0.19-0.16,0.29-0.24c0.05-0.04,0.1-0.08,0.15-0.12c0.15-0.12-0.02,0.02-0.08,0.06
			c0.21-0.13,0.41-0.3,0.62-0.45c0.43-0.3,0.88-0.57,1.34-0.82c0.22-0.12,0.45-0.24,0.68-0.35c0.11-0.06,0.23-0.11,0.34-0.16
			c0.06-0.03,0.12-0.05,0.17-0.08c0.04-0.02,0.25-0.11,0.04-0.02c-0.21,0.09,0,0,0.04-0.02c0.06-0.02,0.12-0.05,0.18-0.07
			c0.12-0.05,0.24-0.09,0.36-0.13c0.25-0.09,0.51-0.18,0.77-0.26c0.75-0.23,1.3-1.06,1.05-1.85c-0.24-0.75-1.04-1.3-1.85-1.05
			c-2.3,0.71-4.39,1.88-6.22,3.43c-0.6,0.51-0.56,1.6,0,2.12C742.27,129.54,743.11,129.49,743.75,128.95L743.75,128.95z"/>
	</g>
</g>
<g>
	<g>
		<path class="st1" d="M763.18,183.73c1.54-8.82,1.16-17.84-1.18-26.49c-0.96,0.27-1.93,0.53-2.89,0.8
			c3.32,8.52,3.57,17.91,0.69,26.6c-0.61,1.84,2.29,2.62,2.89,0.8c3.03-9.13,2.8-19.22-0.69-28.19c-0.68-1.76-3.41-1.11-2.89,0.8
			c2.2,8.11,2.62,16.61,1.18,24.89C759.96,184.82,762.85,185.64,763.18,183.73L763.18,183.73z"/>
	</g>
</g>
</svg>
