<?xml version="1.0" encoding="utf-8"?>
<!-- Generator: Adobe Illustrator 24.1.1, SVG Export Plug-In . SVG Version: 6.00 Build 0)  -->
<svg version="1.1" id="Capa_1" xmlns="http://www.w3.org/2000/svg" xmlns:xlink="http://www.w3.org/1999/xlink" x="0px" y="0px"
	 viewBox="0 0 300 300" style="enable-background:new 0 0 300 300;" xml:space="preserve">
<style type="text/css">
	.st0{fill:#FFFFFF;}
	.st1{fill:#FF8B00;}
	.st2{fill:none;stroke:#FF8B00;stroke-width:4;stroke-miterlimit:10;}
</style>
<g>
	<polygon class="st0" points="53.51,183.91 72.43,83.98 168.43,50.39 245.52,116.74 226.6,216.68 130.6,250.26 	"/>
	<path class="st1" d="M168,52.66l75.34,64.84l-18.49,97.66l-93.82,32.82l-75.34-64.84l18.49-97.66L168,52.66 M168.86,48.12
		L70.68,82.47l-19.35,102.2l78.84,67.86l98.18-34.35l19.35-102.2L168.86,48.12L168.86,48.12z"/>
</g>
<g>
	<polygon class="st0" points="68.3,179.64 84.67,93.16 167.75,64.1 234.45,121.52 218.08,207.99 135.01,237.05 	"/>
	<path class="st1" d="M167.32,66.37l64.95,55.91l-15.94,84.2l-80.89,28.3l-64.95-55.91l15.94-84.2L167.32,66.37 M168.18,61.84
		L82.92,91.66l-16.8,88.74l68.45,58.92l85.25-29.82l16.8-88.74L168.18,61.84L168.18,61.84z"/>
</g>
<g>
	<polygon class="st0" points="110.5,164.1 118.35,122.63 158.19,108.7 190.17,136.23 182.33,177.7 142.49,191.63 	"/>
	<path class="st1" d="M157.76,110.97L188,136.99l-7.42,39.2l-37.66,13.17l-30.24-26.03l7.42-39.2L157.76,110.97 M158.62,106.43
		l-42.02,14.7l-8.28,43.74l33.74,29.04l42.02-14.7l8.28-43.74L158.62,106.43L158.62,106.43z"/>
</g>
<g>
	<line class="st2" x1="54.77" y1="92.31" x2="32.85" y2="59.08"/>
</g>
<line class="st2" x1="54.06" y1="91.6" x2="69.62" y2="59.08"/>
<g>
	<line class="st2" x1="69.62" y1="60.49" x2="32.85" y2="59.08"/>
</g>
<g>
	<line class="st2" x1="88.16" y1="54.3" x2="96.16" y2="15.3"/>
</g>
<line class="st2" x1="88.16" y1="53.3" x2="122.16" y2="41.3"/>
<g>
	<line class="st2" x1="121.16" y1="42.3" x2="96.16" y2="15.3"/>
</g>
<g>
	<line class="st2" x1="152.68" y1="41.32" x2="174" y2="11"/>
</g>
<line class="st2" x1="152.68" y1="39.32" x2="190" y2="44"/>
<g>
	<line class="st2" x1="188" y1="42" x2="174" y2="11"/>
</g>
<g>
	<line class="st2" x1="207.12" y1="240.34" x2="199.12" y2="279.34"/>
</g>
<line class="st2" x1="207.12" y1="241.34" x2="173.12" y2="253.34"/>
<g>
	<line class="st2" x1="174.12" y1="252.34" x2="199.12" y2="279.34"/>
</g>
<g>
	<line class="st2" x1="248.6" y1="211.45" x2="271.06" y2="245.49"/>
</g>
<line class="st2" x1="249.33" y1="212.18" x2="233.39" y2="245.49"/>
<g>
	<line class="st2" x1="233.39" y1="244.04" x2="271.06" y2="245.49"/>
</g>
<g>
	<line class="st2" x1="148.39" y1="270.22" x2="115" y2="292.24"/>
</g>
<line class="st2" x1="147.68" y1="270.93" x2="115" y2="255.3"/>
<g>
	<line class="st2" x1="115.8" y1="254.94" x2="114.35" y2="292.6"/>
</g>
<g>
	<line class="st2" x1="55.33" y1="206.21" x2="16.33" y2="198.21"/>
</g>
<line class="st2" x1="54.33" y1="206.21" x2="42.33" y2="172.21"/>
<g>
	<line class="st2" x1="43.33" y1="173.21" x2="16.33" y2="198.21"/>
</g>
<g>
	<line class="st2" x1="84.21" y1="247.7" x2="50.17" y2="270.15"/>
</g>
<line class="st2" x1="83.49" y1="248.42" x2="50.17" y2="232.48"/>
<g>
	<line class="st2" x1="51.62" y1="232.48" x2="50.17" y2="270.15"/>
</g>
<g>
	<line class="st2" x1="25.45" y1="147.49" x2="3.42" y2="114.09"/>
</g>
<line class="st2" x1="24.74" y1="146.78" x2="40.37" y2="114.09"/>
<g>
	<line class="st2" x1="40.73" y1="114.89" x2="3.06" y2="113.44"/>
</g>
<g>
	<line class="st2" x1="245.95" y1="91.8" x2="284.95" y2="99.8"/>
</g>
<line class="st2" x1="246.95" y1="91.8" x2="258.95" y2="125.8"/>
<g>
	<line class="st2" x1="257.95" y1="124.8" x2="284.95" y2="99.8"/>
</g>
<g>
	<line class="st2" x1="217.06" y1="50.32" x2="251.1" y2="27.87"/>
</g>
<line class="st2" x1="217.79" y1="49.59" x2="251.1" y2="65.53"/>
<g>
	<line class="st2" x1="249.66" y1="65.53" x2="251.1" y2="27.87"/>
</g>
<g>
	<line class="st2" x1="275.83" y1="150.53" x2="297.86" y2="183.92"/>
</g>
<line class="st2" x1="276.54" y1="151.24" x2="260.91" y2="183.92"/>
<g>
	<line class="st2" x1="260.55" y1="183.12" x2="298.21" y2="184.57"/>
</g>
</svg>
